<?xml version="1.0"?>
<svg xmlns:rdf="http://www.w3.org/1999/02/22-rdf-syntax-ns#" xmlns="http://www.w3.org/2000/svg" xmlns:cc="http://web.resource.org/cc/" xmlns:xlink="http://www.w3.org/1999/xlink" xmlns:dc="http://purl.org/dc/elements/1.1/" xmlns:svg="http://www.w3.org/2000/svg" id="svg3172" viewBox="0 0 164.12 157.51" version="1.0">
  <defs id="defs3174">
    <linearGradient id="linearGradient3738">
      <stop id="stop3740" stop-color="#eeeeec" offset="0"/>
      <stop id="stop3742" stop-color="#eeeeec" stop-opacity="0" offset="1"/>
    </linearGradient>
    <linearGradient id="linearGradient3640">
      <stop id="stop3642" stop-color="#fcf2e2" offset="0"/>
      <stop id="stop3644" stop-color="#f2bb65" offset="1"/>
    </linearGradient>
    <linearGradient id="linearGradient3265">
      <stop id="stop3267" stop-color="#eeeeec" stop-opacity=".38125" offset="0"/>
      <stop id="stop3269" stop-color="#eeeeec" stop-opacity="0" offset="1"/>
    </linearGradient>
    <linearGradient id="linearGradient3614">
      <stop id="stop3616" stop-color="#eeeeec" offset="0"/>
      <stop id="stop3630" stop-color="#eeeeec" offset=".81226"/>
      <stop id="stop3618" stop-color="#babdb6" offset="1"/>
    </linearGradient>
    <linearGradient id="linearGradient3658">
      <stop id="stop3660" stop-color="#8f5902" offset="0"/>
      <stop id="stop3668" stop-color="#c17d11" offset=".70825"/>
      <stop id="stop3662" stop-color="#c17d11" offset="1"/>
    </linearGradient>
    <radialGradient id="radialGradient4141" xlink:href="#linearGradient3738" gradientUnits="userSpaceOnUse" cy="6.9539" cx="25.446" gradientTransform="matrix(.41722 .14296 -.064225 .18743 358.19 412.31)" r="11.148"/>
    <radialGradient id="radialGradient4145" xlink:href="#linearGradient3265" gradientUnits="userSpaceOnUse" cy="6.3288" cx="28.114" gradientTransform="matrix(.40919 -.25135 .14946 .24331 346.07 423.77)" r="10.579"/>
    <radialGradient id="radialGradient4154" xlink:href="#linearGradient3614" gradientUnits="userSpaceOnUse" cy="20.145" cx="28.273" gradientTransform="matrix(1.0293 -1.0693 1.3516 1.301 316.65 431.38)" r="4.4262"/>
    <radialGradient id="radialGradient4158" xlink:href="#linearGradient3614" gradientUnits="userSpaceOnUse" cy="20.775" cx="17.093" gradientTransform="matrix(1.9085 0 0 1.7125 324.59 392.72)" r="4.0414"/>
    <radialGradient id="radialGradient4164" xlink:href="#linearGradient3658" gradientUnits="userSpaceOnUse" cy="31.259" cx="35.223" gradientTransform="matrix(-.41912 -.76111 1.3795 -.75964 355.78 483.51)" r="13.483"/>
    <radialGradient id="radialGradient4169" gradientUnits="userSpaceOnUse" cy="32.881" cx="16.459" gradientTransform="matrix(1.275 0 0 .76808 335.23 422.38)" r="12.084">
      <stop id="stop3520" stop-color="#eeeeec" offset="0"/>
      <stop id="stop3526" stop-color="#7fa7d2" offset=".84131"/>
      <stop id="stop3522" stop-color="#729fcf" offset="1"/>
    </radialGradient>
    <radialGradient id="radialGradient4578" xlink:href="#linearGradient3640" gradientUnits="userSpaceOnUse" cy="29.79" cx="11.679" gradientTransform="matrix(.91170 -1.2024 .51799 .39277 307 497.6)" r="12.084"/>
    <radialGradient id="radialGradient4580" xlink:href="#linearGradient3658" gradientUnits="userSpaceOnUse" cy="31.259" cx="35.223" gradientTransform="matrix(-.76111 .41912 -.75964 -1.3795 372.3 489.94)" r="13.483"/>
    <radialGradient id="radialGradient4582" xlink:href="#linearGradient3614" gradientUnits="userSpaceOnUse" cy="20.775" cx="17.093" gradientTransform="matrix(0 -1.9085 1.7125 0 281.51 521.14)" r="4.0414"/>
    <radialGradient id="radialGradient4584" xlink:href="#linearGradient3614" gradientUnits="userSpaceOnUse" cy="20.145" cx="28.273" gradientTransform="matrix(-1.0693 -1.0293 1.301 -1.3516 320.17 529.08)" r="4.4262"/>
    <radialGradient id="radialGradient4586" xlink:href="#linearGradient3265" gradientUnits="userSpaceOnUse" cy="6.3288" cx="28.114" gradientTransform="matrix(-.25135 -.40919 .24331 -.14946 312.56 499.66)" r="10.579"/>
    <radialGradient id="radialGradient4588" xlink:href="#linearGradient3738" gradientUnits="userSpaceOnUse" cy="6.9539" cx="25.446" gradientTransform="matrix(.14296 -.41722 .18743 .064225 301.1 487.54)" r="11.148"/>
    <radialGradient id="radialGradient4590" xlink:href="#linearGradient3738" gradientUnits="userSpaceOnUse" cy="44.544" cx="17.924" gradientTransform="matrix(.11431 -.38630 1.2721 .37642 289.21 479.94)" r="1.9009"/>
    <radialGradient id="radialGradient4592" xlink:href="#linearGradient3738" gradientUnits="userSpaceOnUse" cy="46.457" cx="14.098" gradientTransform="matrix(.036461 -.18350 .66886 .13290 316.65 482.62)" r="2.65"/>
    <radialGradient id="radialGradient4594" xlink:href="#linearGradient3738" gradientUnits="userSpaceOnUse" cy="46.457" cx="14.098" gradientTransform="matrix(-.0045402 .18703 .71896 .017453 315.14 469.27)" r="2.65"/>
    <radialGradient id="radialGradient4596" gradientUnits="userSpaceOnUse" cy="11.31" cx="18.102" gradientTransform="matrix(.091707 -1.4608 2.2576 .14173 278.27 511.55)" r="13.284">
      <stop id="stop4737" stop-color="#babdb6" offset="0"/>
      <stop id="stop4751" stop-color="#b6b9b2" offset=".61188"/>
      <stop id="stop4739" stop-color="#888a85" offset="1"/>
    </radialGradient>
    <radialGradient id="radialGradient4598" gradientUnits="userSpaceOnUse" cy="10.631" cx="17.643" gradientTransform="matrix(.39240 -1.4644 1.4138 .37882 282.42 509.43)" r="13.284">
      <stop id="stop4685" stop-color="#eeeeec" offset="0"/>
      <stop id="stop4691" stop-color="#babdb6" stop-opacity="0" offset=".28365"/>
      <stop id="stop4687" stop-color="#babdb6" stop-opacity="0" offset="1"/>
    </radialGradient>
    <linearGradient id="linearGradient4600" x1="25.375" gradientUnits="userSpaceOnUse" y1="10.188" gradientTransform="matrix(0 -1.275 1.275 0 290.73 510.21)" x2="24.266" y2="10.188">
      <stop id="stop4642" stop-color="#555753" offset="0"/>
      <stop id="stop4644" stop-color="#555753" stop-opacity="0" offset="1"/>
    </linearGradient>
    <radialGradient id="radialGradient4609" xlink:href="#linearGradient3738" gradientUnits="userSpaceOnUse" cy="46.457" cx="14.098" gradientTransform="matrix(.18752 .0045521 .017498 -.72083 417.99 537.03)" r="2.65"/>
    <radialGradient id="radialGradient4612" xlink:href="#linearGradient3738" gradientUnits="userSpaceOnUse" cy="46.457" cx="14.098" gradientTransform="matrix(-.18398 -.036556 .13325 -.67061 431.38 535.51)" r="2.65"/>
    <radialGradient id="radialGradient4615" xlink:href="#linearGradient3738" gradientUnits="userSpaceOnUse" cy="44.544" cx="17.924" gradientTransform="matrix(-.38731 -.11461 .37740 -1.2754 428.69 563.02)" r="1.9009"/>
    <radialGradient id="radialGradient4620" xlink:href="#linearGradient3738" gradientUnits="userSpaceOnUse" cy="6.9539" cx="25.446" gradientTransform="matrix(-.41831 -.14334 .064393 -.18792 436.31 551.1)" r="11.148"/>
    <radialGradient id="radialGradient4624" xlink:href="#linearGradient3265" gradientUnits="userSpaceOnUse" cy="6.3288" cx="28.114" gradientTransform="matrix(-.41026 .252 -.14985 -.24395 448.46 539.62)" r="10.579"/>
    <radialGradient id="radialGradient4639" xlink:href="#linearGradient3614" gradientUnits="userSpaceOnUse" cy="20.145" cx="28.273" gradientTransform="matrix(-1.032 1.0721 -1.3551 -1.3044 477.95 531.98)" r="4.4262"/>
    <radialGradient id="radialGradient4643" xlink:href="#linearGradient3614" gradientUnits="userSpaceOnUse" cy="20.775" cx="17.093" gradientTransform="matrix(-1.9135 0 0 -1.7169 469.99 570.74)" r="4.0414"/>
    <radialGradient id="radialGradient4650" xlink:href="#linearGradient3658" gradientUnits="userSpaceOnUse" cy="31.259" cx="35.223" gradientTransform="matrix(.42021 .76309 -1.3831 .76162 438.72 479.72)" r="13.483"/>
    <radialGradient id="radialGradient4779" xlink:href="#linearGradient3738" gradientUnits="userSpaceOnUse" cy="46.457" cx="14.098" gradientTransform="matrix(-.18703 -.0045402 -.017453 .71896 252.61 347.89)" r="2.65"/>
    <radialGradient id="radialGradient4782" xlink:href="#linearGradient3738" gradientUnits="userSpaceOnUse" cy="46.457" cx="14.098" gradientTransform="matrix(.18350 .036461 -.13290 .66886 239.25 349.4)" r="2.65"/>
    <radialGradient id="radialGradient4785" xlink:href="#linearGradient3738" gradientUnits="userSpaceOnUse" cy="44.544" cx="17.924" gradientTransform="matrix(.38630 .11431 -.37642 1.2721 241.93 321.96)" r="1.9009"/>
    <radialGradient id="radialGradient4792" xlink:href="#linearGradient3738" gradientUnits="userSpaceOnUse" cy="6.9539" cx="25.446" gradientTransform="matrix(.41722 .14296 -.064225 .18743 234.34 333.85)" r="11.148"/>
    <radialGradient id="radialGradient4796" xlink:href="#linearGradient3265" gradientUnits="userSpaceOnUse" cy="6.3288" cx="28.114" gradientTransform="matrix(.40919 -.25135 .14946 .24331 222.22 345.31)" r="10.579"/>
    <radialGradient id="radialGradient4811" xlink:href="#linearGradient3614" gradientUnits="userSpaceOnUse" cy="20.145" cx="28.273" gradientTransform="matrix(1.0293 -1.0693 1.3516 1.301 192.8 352.92)" r="4.4262"/>
    <radialGradient id="radialGradient4815" xlink:href="#linearGradient3614" gradientUnits="userSpaceOnUse" cy="20.775" cx="17.093" gradientTransform="matrix(1.9085 0 0 1.7125 200.74 314.26)" r="4.0414"/>
    <radialGradient id="radialGradient4824" xlink:href="#linearGradient3658" gradientUnits="userSpaceOnUse" cy="31.259" cx="35.223" gradientTransform="matrix(-.41912 -.76111 1.3795 -.75964 231.93 405.05)" r="13.483"/>
    <radialGradient id="radialGradient4827" xlink:href="#linearGradient3640" gradientUnits="userSpaceOnUse" cy="29.79" cx="11.679" gradientTransform="matrix(1.2024 .91170 -.39277 .51799 224.28 339.74)" r="12.084"/>
  </defs>
  <g id="layer2" transform="translate(2.1253 7.0698)">
    <path id="path5887" d="m149.49 57.775a69.558 70.737 0 1 1 -139.12 0 69.558 70.737 0 1 1 139.12 0z" stroke-opacity=".98039" transform="matrix(1.0049 0 0 .94149 -.39237 17.292)" stroke="#ff3" stroke-width="25" fill="none"/>
  </g>
  <g id="layer1" transform="translate(-296.3 -409.71)">
    <g id="g7659" transform="translate(2.32 -1.2933)">
      <g id="g4527" transform="translate(7.3721 6.3604)">
        <g id="g3850" stroke="#2e3436" transform="matrix(-1.5818 -.19464 .19464 -1.5818 344.4 513.21)">
          <g id="g3852" fill-rule="evenodd">
            <path id="path3854" fill="#c17d11" d="m7.856 34.506c0.6063-3.515 3-5.32 6.014-6.349-1.049 2.083-1.868 3.977-1.908 6.288-0.901 0.991-2.9125 1.151-4.106 0.061z"/>
            <path id="path3856" fill="#8f5902" d="m9.5168 34.355c-1.2873-0.654-1.777 0.358-2.461 1.261-0.5261 1.065-0.6314 1.665-0.6561 1.919-0.0248 0.254-0.0434 0.545 0.099 0.768s1.0647 0.984 2.5565 1.17c1.4918 0.185 2.6988 0.031 3.1818-0.112 0.483-0.142 1.071-0.625 1.071-0.829-0.24-0.891-0.608-1.887-0.916-2.843-0.384-1.189-1.031-1.784-2.8752-1.334z"/>
            <path id="path3858" fill="#8f5902" d="m9.2306 36.919c-1.2833-0.528-2.5954-0.074-2.8185 0.684-0.0558 0.149-0.0641 0.644 0.233 0.873s1.2018 0.908 1.9446 0.951c1.4753 0.301 3.1493 0.159 4.2933-0.419 0.844-0.631 0.083-1.456-0.397-1.821-1.113-0.388-2.062-0.67-3.2554-0.268z"/>
          </g>
          <path id="path3860" stroke-width="1px" fill="none" d="m9.8525 34.282c-0.4064-0.148-0.8947 2.505-0.5781 2.672"/>
        </g>
        <path id="path4629" d="m291.69 479.26l5.62 1.84c1.01-0.81 0.47-3.46-0.04-3.61l-5.58 1.77z" fill-rule="evenodd" stroke="#2e3436" stroke-width="1.275" fill="#eeeeec"/>
        <path id="path2445" fill-rule="evenodd" fill="url(#radialGradient4578)" d="m329.63 490.84s2.65 2.3 4.98 2.96c2.34 0.67 4.33 0.67 4.86 0.54 0.54-0.13 2.28-0.79 3.07-1.48 0.79-0.7 2.4-2.65 2.4-2.65s0.6-2.58 0.79-3.29c0.18-0.71 1.02-4.23 1.42-5.35 0.39-1.12 0.94-2.49 0.94-2.56 0-0.06-0.28-0.49-0.63-1.51-0.35-1.03-1.13-3.41-1.29-4.31s-0.35-1.34-0.29-1.7c0.07-0.37-0.22-0.48-0.42-1.27-0.21-0.79-0.29-2.9-0.37-3.42-0.07-0.52-1.97-2.47-2.4-2.73-0.42-0.27-0.36-0.32-0.75 0.04-0.4 0.37-2.23-0.53-2.42-0.52-0.19 0.02-0.91-0.04-2.33 0.21s-3.52 1.06-5.31 2.26c-1.78 1.19-2.35 1.78-2.35 1.78s1.07 1.37 1.85 2.52c0.77 1.16 1.95 2.55 2.71 3.73s2.07 3.52 2.26 4.83-1.67 5.72-2.39 6.71c-0.73 0.99-2.24 2.97-2.55 3.3-0.32 0.33-1.63 1.75-1.75 1.8-0.13 0.04 0 0.09-0.03 0.11z"/>
        <path id="path2443" d="m319.81 494.72c0.76 0.16 4.67-0.19 5.71-0.6s2.5-1.29 2.78-1.39c1.72 1.21 3.62 1.91 5.65 2.43 1.76 0.47 3.67-0.13 5.07-0.71-3.71 0.39-6.66-1.37-9.52-3.48 0 0 1.17-1.03 1.64-1.73 0.47-0.69 2.81-3.39 3.54-4.39 0.72-0.99 2.57-3.85 1.34-7.1s-2.94-4.84-3.92-6.25c-0.98-1.4-1.87-2.87-2.55-3.63 0.82-0.78 0.51-0.68 3.47-2.56 0.84-0.45 2.26-1.09 3.17-1.37 0.92-0.28 2.75-0.41 3.1-0.43 0.34-0.01-1.84-1.01-2.25-1.16-0.41-0.16-2.43-0.29-4.81 0.44-2.38 0.72-2.65 0.72-3.22 0.99s-0.47 0.44-0.74 0.4c-0.27-0.05-1.06-0.89-2.83-1.33s-4.1-0.47-5.44-0.09c-7.97 0.83-12.88 9.2-11.57 17.59 1.06 7.19-0.38 17.33 11.38 14.37z" fill-rule="evenodd" stroke="#2e3436" stroke-width="1.275" fill="url(#radialGradient4580)"/>
        <path id="path2401" d="m350.06 494.41c-2.88 0.1-3.92-1.93-5.11-4.24-0.16-0.05-0.04-1.98 0.77-3.13 0.12-3.21 0.74-5.3 2.4-7.96 0.13-0.13 2.28-0.02 2.28-0.02 0.71 2.81 0.7 5.6 0.33 8.32 0.44 2.94 0.14 5.02-0.67 7.03z" fill-rule="evenodd" stroke="#2e3436" stroke-width="1.275" fill="#8f5902"/>
        <path id="path4956" stroke="#2e3436" stroke-width="1.275" fill="none" d="m345.75 487.02s0.73 0.51 1.8 0.63 3.15 0.21 3.15 0.21"/>
        <path id="path2411" d="m320.09 494.81s1.31 0.06 2.37-0.09c1.06-0.16 2.36-0.48 2.78-0.57s0.39-0.05 0.44-0.03c0.04 0.03 1.87 0.9 3.18 2.29 1.3 1.4 1.91 2.42 1.96 2.9 0.06 0.48-0.28 0.96-0.82 0.98-2.47-0.01-4.41-0.81-6.4-2.2-0.83-0.65-2.79-2.05-3.18-2.58-0.39-0.54-0.33-0.74-0.33-0.7z" fill-rule="evenodd" stroke="#2e3436" stroke-width="1.275" fill="#8f5902"/>
        <path id="path2413" d="m320.06 494.82c0.21 0.95 1.36 1.34 0.62 2.41-1.95 6.58-8.58 9.27-15 8.55-0.98 0.02-2.85-0.78-1.46-1.79 2.26-2.12 9.54-3.16 7.72-7.2-1.33-1.56-3.18-2.56-4.71-3.9-3.77-3.01-5.56-7.1-5.56-11.8 0.26-0.73-0.42-2.9 0.82-1.92 2.25 0.77 4.66 0.71 7 0.59 0.42 4.45 2.19 8.76 5.03 12.22 1.58 1.38 3.67 1.96 5.54 2.84z" fill-rule="evenodd" stroke="#2e3436" stroke-width="1.275" fill="#555753"/>
        <path id="path2415" fill-rule="evenodd" fill="url(#radialGradient4582)" d="m320.86 480.93c2.27 1.01 3.69 4.99 3.41 7.68-0.24 2.45-3.81 2.92-6.02 2.08-3.06-1.17-4.11-4.53-2.3-7.26 1.12-1.7 3.4-3.17 4.91-2.5z"/>
        <path id="path2417" transform="matrix(0 -.089290 .089290 0 343.34 554.71)" fill="#2e3436" d="m799.75-257.75a17.25 17.25 0 1 1 -34.5 0 17.25 17.25 0 1 1 34.5 0z"/>
        <path id="path2421" fill-rule="evenodd" fill="url(#radialGradient4584)" d="m322.91 474.57c1.03-2.15 2.15-4.44 1.25-6.54-0.77-1.78-2.89-1.91-4.73-1.58-2.94 0.52-4.39 3.45-4.39 6.15 0.01 2.62 2.23 4.02 4.59 4.86 1.91 0.67 2.54-1.35 3.28-2.89z"/>
        <path id="path2419" transform="matrix(0 -.089290 .089290 0 343.45 543.78)" fill="#2e3436" d="m799.75-257.75a17.25 17.25 0 1 1 -34.5 0 17.25 17.25 0 1 1 34.5 0z"/>
        <path id="path2423" d="m329.1 482.24c-0.04-0.01-1.29 0.81-1.71 1.36-0.41 0.55-0.61 0.88-0.63 1.37s0.04 0.73 0.2 0.81c0.16 0.07 0.33-0.18 0.72-0.89 0.4-0.7 1.43-2.65 1.42-2.65z" fill="#2e3436" fill-rule="evenodd"/>
        <path id="path2425" d="m329.1 478.53c-0.04 0.02-1.29-0.81-1.71-1.36-0.41-0.54-0.61-0.88-0.63-1.37s0.04-0.73 0.2-0.8c0.16-0.08 0.33 0.18 0.72 0.88 0.4 0.7 1.43 2.65 1.42 2.65z" fill="#2e3436" fill-rule="evenodd"/>
        <path id="path2427" fill-rule="evenodd" fill="#2e3436" d="m329.24 488.61c2.81-2.38 5.26-4.81 5.45-8.35 0.18-3.37-3.02-6.04-4.85-8.87 1.62 2.86 3.99 5.81 4.13 8.89-0.24 3.52-2.46 5.81-4.73 8.33z"/>
        <path id="path2429" d="m348.05 478.97l2.43 0.04c0.5-2.63 0.6-5.27 0.34-7.92 0.32-2.85 0.15-5.69-0.65-8.24-2.87 0.19-3.95 1.92-4.97 3.99-0.05 1.55 0.11 2.85 0.59 4.11 0.23 3.01 1.07 5.69 2.26 8.02z" fill-rule="evenodd" stroke="#2e3436" stroke-width="1.275" fill="#8f5902"/>
        <path id="path2431" stroke="#2e3436" stroke-width="1.275" fill="none" d="m345.92 471.28s1.17-0.26 2.09-0.3c0.91-0.05 2.82 0.04 2.82 0.04"/>
        <path id="path2439" d="m319.84 462.55s-0.16-0.63 2.02-2.18c2.18-1.54 3.54-2.65 4.96-3.06s2.99-0.82 3.5-0.49 0.63 0.65 0.17 1.47c-0.45 0.82-2.03 2.84-3.28 3.63s-1.58 0.98-1.58 0.98-1.94-0.55-2.89-0.51c-0.94 0.05-2.55 0.29-2.66 0.33-0.11 0.05-0.23-0.22-0.24-0.17z" fill-rule="evenodd" stroke="#2e3436" stroke-width="1.275" fill="#8f5902"/>
        <path id="path2441" d="m301.77 478.71c2.24 1.47 5.04 1.03 7.56 0.97 0.24-2.07 2.59-7.99 4.25-11.79 0.91-1.72 2.58-2.83 4.25-3.72 1.23-0.94 3.23-1.98 2.94-3.8-1.04-4.87-4.54-8.24-9.52-8.91-2.58-0.28-5.31 0-7.6 1.27-1.58 1.2 0.98 2.21 1.96 2.5 2.13 0.74 5.85 0.44 6.32 2.54 0.95 4.22-6.5 7.27-8.93 11.54-1.5 2.89-1.82 6.23-1.23 9.4z" fill-rule="evenodd" stroke="#2e3436" stroke-width="1.275" fill="#555753"/>
        <path id="path3251" stroke="#2e3436" stroke-width="1.275px" fill="none" d="m339.46 463.43c2.2 0.33 3.74 0.57 5.13 2.49 0.43 0.6 0.48 0.57 0.48 0.57"/>
        <path id="path3253" stroke="#2e3436" stroke-width="1.275px" fill="none" d="m338.72 494.51c3.84-0.06 5.06-2.44 6.04-4.05"/>
        <path id="path3255" fill-rule="evenodd" fill="url(#radialGradient4586)" d="m320.06 494.82c0.21 0.95 1.36 1.34 0.62 2.41-1.95 6.58-8.58 9.27-15 8.55-0.98 0.02-2.85-0.78-1.46-1.79 2.26-2.12 9.54-3.16 7.72-7.2-1.33-1.56-3.18-2.56-4.71-3.9-3.77-3.01-5.56-7.1-5.56-11.8 0.26-0.73-0.42-2.9 0.82-1.92 2.25 0.77 4.66 0.71 7 0.59 0.42 4.45 2.19 8.76 5.03 12.22 1.58 1.38 3.67 1.96 5.54 2.84z"/>
        <path id="path3429" d="m301.77 478.71c2.24 1.47 5.04 1.03 7.56 0.97 0.24-2.07 2.59-7.99 4.25-11.79 0.91-1.72 2.58-2.83 4.25-3.72 1.23-0.94 3.23-1.98 2.94-3.8-1.04-4.87-4.54-8.24-9.52-8.91-2.58-0.28-5.31 0-7.6 1.27-1.58 1.2 0.98 2.21 1.96 2.5 2.13 0.74 5.85 0.44 6.32 2.54 0.95 4.22-6.5 7.27-8.93 11.54-1.5 2.89-1.82 6.23-1.23 9.4z" fill="none"/>
        <path id="path3447" opacity=".62188" fill-rule="evenodd" fill="url(#radialGradient4588)" d="m301.85 477.68c2.24 1.46 5.03 1.02 7.56 0.96 0.24-2.07 2.51-6.95 4.17-10.75 0.91-1.72 2.58-2.83 4.25-3.72 1.23-0.94 3.23-1.98 2.94-3.8-1.04-4.87-4.54-8.24-9.52-8.91-2.58-0.28-5.31 0-7.6 1.27-1.58 1.2 0.98 2.21 1.96 2.5 2.13 0.74 5.85 0.44 6.32 2.54 0.95 4.22-6.5 7.27-8.93 11.54-1.5 2.89-1.74 5.2-1.15 8.37z"/>
        <path id="path3654" stroke="#2e3436" stroke-width="1.275px" fill="none" d="m327.91 492.91c0.64-0.48 0.61-0.56 1.16-1.57"/>
        <path id="path3656" stroke="#2e3436" stroke-width="1.275px" fill="none" d="m329.46 467.67c-0.89-0.51-0.31-2.61-1.55-3.72"/>
        <path id="path4731" d="m302.53 492.2c3.84 3.24 7.27 3.08 7.27 3.08l10.61 0.15s2.87-5.15 2.31-4.85c-0.56 0.29-8.6-0.41-8.54-0.52 0.9-2.48 1.36-3.56 2-7.94 0 0 10.34 0.89 10.9 1.04 0.87-2.95 0.83-4.96-0.04-7.9-0.56 0.15-10.86 0.89-10.86 0.89-0.87-4.38-1.27-5.51-2-7.94-0.06-0.11 7.98-0.78 8.54-0.49s-2.31-4.88-2.31-4.88l-10.61 0.15s-2.96-0.05-7.05 2.98c-8.95 6.65-8.21 19.48-0.22 26.23z" fill-rule="evenodd" stroke="#2e3436" stroke-width="1.275" fill="#babdb6"/>
        <path id="path3672" opacity=".37188" fill-rule="evenodd" fill="url(#radialGradient4590)" d="m346.1 488.54zm4.01 0.52zl-4.01-0.52c-0.44 0.87-0.5 2.01-0.39 2.05 0.9 1.74 1.68 3.26 3.85 3.19 0.56-1.38 0.75-2.81 0.55-4.72z"/>
        <path id="path3683" opacity=".49375" fill-rule="evenodd" fill="url(#radialGradient4592)" d="m350.02 487.51c-0.03-0.24-0.02-0.47-0.06-0.72 0.27-1.97 0.28-3.99-0.23-6.02 0 0-1.57-0.07-1.67 0.03-1.2 1.92-1.64 3.44-1.73 5.76l3.69 0.95z"/>
        <path id="path3804" opacity=".44688" fill-rule="evenodd" fill="url(#radialGradient4594)" d="m350.26 471.42c-0.03 0.24-0.02 0.47-0.06 0.72 0.27 1.97 0.28 3.99-0.23 6.02 0 0-1.57 0.07-1.67-0.03-1.2-1.92-1.64-3.44-1.73-5.76l3.69-0.95z"/>
        <path id="path4506" d="m302.53 492.2c3.84 3.24 7.27 3.08 7.27 3.08l10.61 0.15s2.87-5.15 2.31-4.85c-0.56 0.29-8.6-0.41-8.54-0.52 0.9-2.48 1.36-3.56 2-7.94 0 0 10.34 0.89 10.9 1.04 0.87-2.95 0.83-4.96-0.04-7.9-0.56 0.15-10.86 0.89-10.86 0.89-0.87-4.38-1.27-5.51-2-7.94-0.06-0.11 7.98-0.78 8.54-0.49s-2.31-4.88-2.31-4.88l-10.61 0.15s-2.96-0.05-7.05 2.98c-8.95 6.65-8.21 19.48-0.22 26.23z" fill-rule="evenodd" stroke="#2e3436" stroke-width="1.275" fill="url(#radialGradient4596)"/>
        <path id="path4511" stroke="#2e3436" stroke-width="1.275" fill="none" d="m307.97 494.97c5.73-10.04 5.68-20.72 0.25-31.6"/>
        <path id="path4729" d="m302.47 492.24c3.84 3.24 7.28 3.08 7.28 3.08l10.6 0.15s2.87-5.15 2.31-4.85c-0.56 0.29-8.6-0.41-8.54-0.52 0.9-2.48 1.36-3.56 2-7.94 0 0 10.34 0.89 10.9 1.04 0.87-2.95 0.83-4.96-0.04-7.9-0.56 0.15-10.86 0.89-10.86 0.89-0.87-4.38-1.26-5.51-2-7.94-0.06-0.11 7.98-0.78 8.54-0.49s-2.31-4.88-2.31-4.88l-10.6 0.15s-2.97-0.05-7.06 2.98c-8.95 6.65-8.21 19.48-0.22 26.23z" fill-rule="evenodd" stroke="#2e3436" stroke-width="1.275" fill="url(#radialGradient4598)"/>
        <path id="path4513" stroke="#2e3436" stroke-width="1.275" fill="none" d="m296.86 483.13l15.19-0.59c0.08 0.01 0.37-4.01 0.05-6.45-0.01-0.08-15.44-0.64-15.44-0.64-0.62 2.77-0.4 5.48 0.2 7.68z"/>
        <path id="path4621" fill-rule="evenodd" fill="#eeeeec" d="m293.6 479.27l4.19 1.37c0.76-0.6 0.35-2.58-0.03-2.69l-4.16 1.32z"/>
        <path id="path4623" fill-rule="evenodd" fill="#eeeeec" d="m303.96 479.27l3.18 1.44c0.57-0.64 0.26-2.7-0.03-2.83l-3.15 1.39z"/>
        <path id="path4197" fill-rule="evenodd" fill="#eeeeec" d="m308.25 479.16l2.45 1.35c0.44-0.59 0.21-2.54-0.02-2.66l-2.43 1.31z"/>
        <path id="path4627" fill-rule="evenodd" fill="#eeeeec" d="m299.05 479.27l3.54 1.44c0.64-0.64 0.3-2.7-0.03-2.83l-3.51 1.39z"/>
        <path id="path4631" fill-rule="evenodd" fill="url(#linearGradient4600)" d="m293.6 479.25l4.18 1.4c0.76-0.61 0.34-2.59-0.04-2.71l-4.14 1.31zm5.46 0l3.54 1.44c0.64-0.64 0.29-2.67-0.04-2.79l-3.5 1.35zm4.9 0l3.19 1.44c0.57-0.64 0.24-2.67-0.04-2.79l-3.15 1.35zm4.3-0.08l2.43 1.36c0.44-0.6 0.22-2.56 0-2.67l-2.43 1.31z"/>
        <g id="g3844" stroke="#2e3436" transform="matrix(1.25 0 0 1.25 -70.972 -57.283)">
          <path id="path2437" stroke-width="1.275" fill-rule="evenodd" fill="#c17d11" d="m328.75 449.31s-0.27-3.25-1.72-4.9c-1.41-1.65-3.71-2.77-5.66-3.38 0.49 1.75 1.62 4.11 1.86 7.46l-0.05 0.63c1.07-0.85 1.82-0.57 2.9-0.28 0.88-0.69 1.74 0.04 2.67 0.47z"/>
          <path id="path2433" stroke-width="1.275" fill-rule="evenodd" fill="#8f5902" d="m326.02 448.8c-1.71-0.82-2.63-0.04-3.12 0.7-0.28 0.41-1.16 2.26-1.35 2.88-0.19 0.63-0.41 1.47-0.31 1.7s0.85 1 2 1.29 1.79 0.36 2.73 0.36c0.93 0 2.64-0.08 3.87-0.92 1.23-0.85 0.27-3.14-0.18-4.01-0.9-1.74-2-2.84-3.64-2z"/>
          <path id="path2435" stroke-width="1.275" fill-opacity="0" d="m321.26 454.05c0.77-2.22 2.61-2.77 4.84-1.77 2.3-1.18 3.18 0.29 4.31 1.65-0.01 0.21-0.18 0.93-1.09 1.2-0.92 0.27-1.64 0.64-3.53 0.58-1.9-0.06-3.01-0.49-3.44-0.73-0.44-0.25-1.12-0.91-1.09-0.93z"/>
          <path id="path3652" stroke-width="1.275px" fill="none" d="m326.09 448.69c-0.63 0.14-0.38 3.65 0.06 3.6"/>
        </g>
      </g>
      <g id="g4912" transform="translate(8.96 4.7158)">
        <path id="path2690" fill-rule="evenodd" fill="url(#radialGradient4169)" d="m354.89 440.83s-2.3 2.66-2.96 4.99c-0.67 2.34-0.67 4.33-0.54 4.86 0.13 0.54 0.79 2.28 1.48 3.07 0.7 0.79 2.88 1.72 2.88 1.72s2.35 1.28 3.06 1.46c0.71 0.19 0.79 8.61 1.91 9 1.12 0.4 6.16 1.46 6.22 1.46s4.86-0.96 5.88-1.31c0.96-3.1 0.97-5.27 1.42-8.99 0.37 0.07 0.48-0.22 1.27-0.42 0.79-0.21 2.39-0.91 2.92-0.99 0.52-0.08 2.97-1.35 3.23-1.78 0.27-0.42 0.32-0.36-0.04-0.75-0.37-0.4 0.53-2.23 0.52-2.42-0.02-0.19 0.04-0.91-0.21-2.33-0.25-1.43-1.06-3.52-2.26-5.31-1.2-1.78-1.78-2.35-1.78-2.35s-1.37 1.07-2.52 1.85c-1.16 0.77-2.55 1.95-3.73 2.71s-3.52 2.07-4.83 2.26-5.72-1.67-6.71-2.39c-1-0.73-2.97-2.24-3.3-2.55-0.33-0.32-1.75-1.63-1.8-1.75-0.04-0.13-0.09 0-0.11-0.04z"/>
        <path id="path3582" stroke-width="1.275px" stroke="#2e3436" fill-opacity="0" d="m366.78 455.77l-0.34 11.26"/>
        <path id="path3580" stroke="#2e3436" stroke-width="1.275px" fill="none" d="m358.89 456.4s0.44 2.2 0.6 4.19 0.48 4.14 0.88 5.02c0.4 0.87 5.5 1.99 6.49 1.95 1-0.04 4.86-0.68 5.5-1.43 0.64-0.76 1.55-6.22 1.71-8.09s1.28-2.23 1.28-2.23"/>
        <path id="path2692" d="m351.01 431.02c-0.16 0.75 0.19 4.67 0.6 5.71s1.29 2.49 1.39 2.78c-1.21 1.72-1.91 3.62-2.43 5.65-0.47 1.76 0.13 3.67 0.71 5.07-0.39-3.71 1.37-6.66 3.48-9.52 0 0 1.03 1.17 1.73 1.64 0.69 0.47 3.39 2.81 4.39 3.54 0.99 0.72 3.85 2.57 7.1 1.34s4.84-2.94 6.25-3.92c1.4-0.98 2.87-1.88 3.63-2.55 0.78 0.82 0.68 0.51 2.56 3.47 0.45 0.83 1.09 2.26 1.37 3.17 0.28 0.92 0.41 2.75 0.43 3.09 0.01 0.35 1.01-1.83 1.16-2.24 0.16-0.41 0.29-2.43-0.44-4.81-0.72-2.38-0.72-2.65-0.99-3.22s-0.44-0.47-0.4-0.74c0.05-0.27 0.89-1.06 1.33-2.83s0.47-4.1 0.09-5.44c-0.83-7.97-9.2-12.88-17.59-11.57-7.19 1.06-17.33-0.38-14.37 11.38z" fill-rule="evenodd" stroke="#2e3436" stroke-width="1.275" fill="url(#radialGradient4164)"/>
        <path id="path2694" d="m364.97 473.23c-2.88 0.09-3.92-1.94-5.11-4.24-0.16-0.06-0.04-1.98 0.77-3.13l5.01 0.34c0.44 2.94 0.14 5.02-0.67 7.03z" fill-rule="evenodd" stroke="#2e3436" stroke-width="1.275" fill="#eeeeec"/>
        <path id="path2702" d="m350.92 431.3s-0.06 1.31 0.09 2.37c0.16 1.06 0.48 2.36 0.57 2.78s0.05 0.39 0.02 0.43c-0.02 0.05-0.89 1.88-2.28 3.19-1.4 1.3-2.43 1.9-2.91 1.96-0.47 0.06-0.95-0.28-0.97-0.83 0-2.47 0.81-4.4 2.2-6.39 0.65-0.83 2.05-2.79 2.58-3.18 0.54-0.39 0.74-0.33 0.7-0.33z" fill-rule="evenodd" stroke="#2e3436" stroke-width="1.275" fill="#c17d11"/>
        <path id="path2704" d="m350.91 431.27c-0.95 0.21-1.34 1.36-2.41 0.62-6.58-1.95-9.27-8.58-8.55-15-0.03-0.98 0.77-2.85 1.79-1.46 2.12 2.26 3.16 9.53 7.2 7.72 1.56-1.33 2.56-3.18 3.9-4.71 3.01-3.77 7.1-5.56 11.8-5.56 0.73 0.26 2.9-0.43 1.92 0.82-0.77 2.25-0.72 4.66-0.59 7-4.45 0.42-8.76 2.19-12.22 5.03-1.38 1.58-1.96 3.67-2.84 5.54z" fill-rule="evenodd" stroke="#2e3436" stroke-width="1.275" fill="#555753"/>
        <path id="path2706" fill-rule="evenodd" fill="url(#radialGradient4158)" d="m364.8 432.07c-1.01 2.27-4.99 3.69-7.68 3.41-2.45-0.24-2.92-3.81-2.08-6.02 1.17-3.07 4.53-4.11 7.26-2.3 1.7 1.12 3.17 3.4 2.5 4.91z"/>
        <path id="path2708" transform="matrix(.089290 0 0 .089290 291.02 454.55)" fill="#2e3436" d="m799.75-257.75a17.25 17.25 0 1 1 -34.5 0 17.25 17.25 0 1 1 34.5 0z"/>
        <path id="path2710" fill-rule="evenodd" fill="url(#radialGradient4154)" d="m371.16 434.12c2.15 1.03 4.44 2.15 6.54 1.25 1.78-0.77 1.91-2.89 1.58-4.73-0.52-2.94-3.45-4.39-6.15-4.39-2.62 0-4.02 2.23-4.86 4.59-0.67 1.91 1.35 2.54 2.89 3.28z"/>
        <path id="path2712" transform="matrix(.089290 0 0 .089290 301.95 454.66)" fill="#2e3436" d="m799.75-257.75a17.25 17.25 0 1 1 -34.5 0 17.25 17.25 0 1 1 34.5 0z"/>
        <path id="path2714" d="m363.49 440.31c0.01-0.04-0.81-1.29-1.36-1.71-0.55-0.41-0.88-0.61-1.37-0.63s-0.73 0.04-0.81 0.2c-0.07 0.15 0.18 0.33 0.89 0.72 0.7 0.39 2.65 1.43 2.65 1.42z" fill="#2e3436" fill-rule="evenodd"/>
        <path id="path2716" d="m367.2 440.31c-0.02-0.04 0.81-1.29 1.36-1.71 0.54-0.41 0.88-0.61 1.37-0.63s0.72 0.04 0.8 0.2c0.08 0.15-0.18 0.33-0.88 0.72s-2.65 1.43-2.65 1.42z" fill="#2e3436" fill-rule="evenodd"/>
        <path id="path2718" fill-rule="evenodd" fill="#2e3436" d="m357.12 440.45c2.38 2.8 4.81 5.26 8.35 5.45 3.37 0.18 6.04-3.02 8.87-4.85-2.86 1.62-5.81 3.99-8.9 4.13-3.51-0.24-5.8-2.46-8.32-4.73z"/>
        <path id="path2728" d="m383.18 431.05s0.63-0.16 2.18 2.02c1.54 2.18 2.65 3.53 3.06 4.96 0.41 1.42 0.82 2.99 0.49 3.5-0.33 0.5-0.65 0.63-1.47 0.17-0.82-0.45-2.84-2.03-3.63-3.28s-0.98-1.58-0.98-1.58 0.55-1.94 0.51-2.89c-0.05-0.94-0.29-2.55-0.33-2.66-0.05-0.12 0.22-0.23 0.17-0.24z" fill-rule="evenodd" stroke="#2e3436" stroke-width="1.275" fill="#c17d11"/>
        <path id="path2730" d="m367.02 412.98c-1.47 2.24-1.03 5.03-0.97 7.56 2.07 0.24 7.99 2.59 11.79 4.25 1.72 0.91 2.83 2.58 3.72 4.25 0.94 1.23 1.98 3.23 3.8 2.94 4.87-1.04 8.24-4.54 8.91-9.52 0.28-2.58 0-5.31-1.27-7.61-1.2-1.57-2.21 0.99-2.5 1.97-0.74 2.13-0.44 5.85-2.54 6.32-4.22 0.95-7.27-6.5-11.55-8.93-2.88-1.5-6.22-1.83-9.39-1.23z" fill-rule="evenodd" stroke="#2e3436" stroke-width="1.275" fill="#555753"/>
        <path id="path2736" fill-rule="evenodd" fill="url(#radialGradient4145)" d="m350.91 431.27c-0.95 0.21-1.34 1.36-2.41 0.62-6.58-1.95-9.27-8.58-8.55-15-0.03-0.98 0.77-2.85 1.79-1.46 2.12 2.26 3.16 9.53 7.2 7.72 1.56-1.33 2.56-3.18 3.9-4.71 3.01-3.77 7.1-5.56 11.8-5.56 0.73 0.26 2.9-0.43 1.92 0.82-0.77 2.25-0.72 4.66-0.59 7-4.45 0.42-8.76 2.19-12.22 5.03-1.38 1.58-1.96 3.67-2.84 5.54z"/>
        <path id="path2738" d="m367.02 412.98c-1.47 2.24-1.03 5.03-0.97 7.56 2.07 0.24 7.99 2.59 11.79 4.25 1.72 0.91 2.83 2.58 3.72 4.25 0.94 1.23 1.98 3.23 3.8 2.94 4.87-1.04 8.24-4.54 8.91-9.52 0.28-2.58 0-5.31-1.27-7.61-1.2-1.57-2.21 0.99-2.5 1.97-0.74 2.13-0.44 5.85-2.54 6.32-4.22 0.95-7.27-6.5-11.55-8.93-2.88-1.5-6.22-1.83-9.39-1.23z" fill="none"/>
        <path id="path2740" opacity=".62188" fill-rule="evenodd" fill="url(#radialGradient4141)" d="m368.05 413.05c-1.46 2.25-1.02 5.04-0.96 7.57 2.07 0.24 6.95 2.51 10.75 4.17 1.72 0.91 2.83 2.58 3.72 4.25 0.94 1.23 1.98 3.23 3.8 2.94 4.87-1.04 8.24-4.54 8.91-9.52 0.28-2.58 0-5.31-1.27-7.61-1.2-1.57-2.21 0.99-2.5 1.97-0.74 2.13-0.44 5.85-2.54 6.32-4.22 0.95-7.27-6.5-11.55-8.93-2.88-1.5-5.19-1.75-8.36-1.16z"/>
        <g id="g4831" stroke="#2e3436">
          <g id="g4664" transform="matrix(0 1.25 1.25 0 -168.81 40.414)">
            <path id="path4666" stroke-width="1.275" fill-rule="evenodd" fill="#c17d11" d="m328.75 449.31s-0.27-3.25-1.72-4.9c-1.41-1.65-3.71-2.77-5.66-3.38 0.49 1.75 1.62 4.11 1.86 7.46l-0.05 0.63c1.07-0.85 1.82-0.57 2.9-0.28 0.88-0.69 1.74 0.04 2.67 0.47z"/>
            <path id="path4668" stroke-width="1.275" fill-rule="evenodd" fill="#8f5902" d="m326.02 448.8c-1.71-0.82-2.63-0.04-3.12 0.7-0.28 0.41-1.16 2.26-1.35 2.88-0.19 0.63-0.41 1.47-0.31 1.7s0.85 1 2 1.29 1.79 0.36 2.73 0.36c0.93 0 2.64-0.08 3.87-0.92 1.23-0.85 0.27-3.14-0.18-4.01-0.9-1.74-2-2.84-3.64-2z"/>
            <path id="path4670" stroke-width="1.275" fill-opacity="0" d="m321.26 454.05c0.77-2.22 2.61-2.77 4.84-1.77 2.3-1.18 3.18 0.29 4.31 1.65-0.01 0.21-0.18 0.93-1.09 1.2-0.92 0.27-1.64 0.64-3.53 0.58-1.9-0.06-3.01-0.49-3.44-0.73-0.44-0.25-1.12-0.91-1.09-0.93z"/>
            <path id="path4672" stroke-width="1.275px" fill="none" d="m326.09 448.69c-0.63 0.14-0.38 3.65 0.06 3.6"/>
          </g>
          <g id="g3547" transform="matrix(-.19464 -1.5818 -1.5818 .19464 400.32 456.85)">
            <g id="g3530" fill-rule="evenodd">
              <path id="path2686" fill="#c17d11" d="m7.856 34.506c0.6063-3.515 2.72-4.134 5.388-5.547-1.05 2.083-1.242 3.175-1.282 5.486-0.901 0.991-2.9125 1.151-4.106 0.061z"/>
              <path id="path2698" fill="#8f5902" d="m9.5168 34.355c-1.2873-0.654-1.777 0.358-2.461 1.261-0.5261 1.065-0.6314 1.665-0.6561 1.919-0.0248 0.254-0.0434 0.545 0.099 0.768s1.0647 0.984 2.5565 1.17c1.4918 0.185 2.6988 0.031 3.1818-0.112 0.483-0.142 1.071-0.625 1.071-0.829-0.24-0.891-0.608-1.887-0.916-2.843-0.384-1.189-1.031-1.784-2.8752-1.334z"/>
              <path id="path2700" fill="#8f5902" d="m9.2306 36.919c-1.2833-0.528-2.5954-0.074-2.8185 0.684-0.0558 0.149-0.0641 0.644 0.233 0.873s1.2018 0.908 1.9446 0.951c1.4753 0.301 3.1493 0.159 4.2933-0.419 0.844-0.631 0.083-1.456-0.397-1.821-1.113-0.388-2.062-0.67-3.2554-0.268z"/>
            </g>
            <path id="path2742" stroke-width="1px" fill="none" d="m9.8525 34.282c-0.4064-0.148-0.8947 2.505-0.5781 2.672"/>
          </g>
        </g>
        <path id="path2746" stroke="#2e3436" stroke-width="1.275px" fill="none" d="m352.82 439.12c0.48 0.63 0.56 0.61 1.57 1.16"/>
        <path id="path2748" stroke="#2e3436" stroke-width="1.275px" fill="none" d="m378.06 440.67c0.51-0.89 2.61-0.31 3.72-1.55"/>
        <path id="path3528" d="m351.19 450.21c-1.35 3.51-12.11 2.44-4.3 5.38 1.68 1.25 2.62 1.41 4.49 1.1 1.87-0.32 2.76-2.36 3.89-1.74 1.12 0.63 4.34 2.36 5.46 1.74 1.12-0.63 2.79-2.8 4.66-1.86s2.83 2.8 4.51 2.17 1.8-2.74 3.48-2.11 1.54 2.32 3.63 1.8c1.38-0.35 3.4-3.3 5.09-3.3 1.68 0 3.89 2.36 5.39 2.04 1.5-0.31 2.24-1.09 1.87-1.87-0.37-0.79-1.9-2.55-3.77-2.39-1.88 0.15-2.59-0.81-1.65-1.12-10.42 2.67-26.87 2.84-32.75 0.16z" fill-rule="evenodd" stroke="#2e3436" stroke-width="1.3693px" fill="#eeeeec"/>
        <path id="path3588" d="m367.83 473.29c2.88 0.09 3.91-1.94 5.11-4.24 0.16-0.06 0.04-1.99-0.77-3.13l-5.01 0.34c-0.44 2.94-0.14 5.02 0.67 7.03z" fill-rule="evenodd" stroke="#2e3436" stroke-width="1.275" fill="#eeeeec"/>
      </g>
      <g id="g4951" transform="translate(-50.882 2.3579)">
        <g id="g4397" stroke="#2e3436" transform="matrix(0 -1.25 1.25 0 -109.96 923.5)">
          <path id="path4399" stroke-width="1.275" fill-rule="evenodd" fill="#c17d11" d="m328.75 449.31s-0.27-3.25-1.72-4.9c-1.41-1.65-3.71-2.77-5.66-3.38 0.49 1.75 1.62 4.11 1.86 7.46l-0.05 0.63c1.07-0.85 1.82-0.57 2.9-0.28 0.88-0.69 1.74 0.04 2.67 0.47z"/>
          <path id="path4401" stroke-width="1.275" fill-rule="evenodd" fill="#8f5902" d="m326.02 448.8c-1.71-0.82-2.63-0.04-3.12 0.7-0.28 0.41-1.16 2.26-1.35 2.88-0.19 0.63-0.41 1.47-0.31 1.7s0.85 1 2 1.29 1.79 0.36 2.73 0.36c0.93 0 2.64-0.08 3.87-0.92 1.23-0.85 0.27-3.14-0.18-4.01-0.9-1.74-2-2.84-3.64-2z"/>
          <path id="path4403" stroke-width="1.275" fill-opacity="0" d="m321.26 454.05c0.77-2.22 2.61-2.77 4.84-1.77 2.3-1.18 3.18 0.29 4.31 1.65-0.01 0.21-0.18 0.93-1.09 1.2-0.92 0.27-1.64 0.64-3.53 0.58-1.9-0.06-3.01-0.49-3.44-0.73-0.44-0.25-1.12-0.91-1.09-0.93z"/>
          <path id="path4405" stroke-width="1.275px" fill="none" d="m326.09 448.69c-0.63 0.14-0.38 3.65 0.06 3.6"/>
        </g>
        <g id="g3554" stroke="#2e3436" transform="matrix(-.19464 1.5818 -1.5818 -.19464 461.14 506.76)">
          <g id="g3556" fill-rule="evenodd">
            <path id="path3558" fill="#c17d11" d="m7.856 34.506c0.6063-3.515 3-5.32 6.014-6.349-1.049 2.083-1.868 3.977-1.908 6.288-0.901 0.991-2.9125 1.151-4.106 0.061z"/>
            <path id="path3560" fill="#8f5902" d="m9.5168 34.355c-1.2873-0.654-1.777 0.358-2.461 1.261-0.5261 1.065-0.6314 1.665-0.6561 1.919-0.0248 0.254-0.0434 0.545 0.099 0.768s1.0647 0.984 2.5565 1.17c1.4918 0.185 2.6988 0.031 3.1818-0.112 0.483-0.142 1.071-0.625 1.071-0.829-0.24-0.891-0.608-1.887-0.916-2.843-0.384-1.189-1.031-1.784-2.8752-1.334z"/>
            <path id="path3562" fill="#8f5902" d="m9.2306 36.919c-1.2833-0.528-2.5954-0.074-2.8185 0.684-0.0558 0.149-0.0641 0.644 0.233 0.873s1.2018 0.908 1.9446 0.951c1.4753 0.301 3.1493 0.159 4.2933-0.419 0.844-0.631 0.083-1.456-0.397-1.821-1.113-0.388-2.062-0.67-3.2554-0.268z"/>
          </g>
          <path id="path3564" stroke-width="1px" fill="none" d="m9.8525 34.282c-0.4064-0.148-0.8947 2.505-0.5781 2.672"/>
        </g>
        <path id="path17888" fill-rule="evenodd" fill="#eeeeec" d="m439.62 522.51s2.31-2.66 2.97-5.01c0.67-2.34 0.67-4.33 0.54-4.87s-0.79-2.28-1.49-3.07c-0.69-0.79-2.66-2.41-2.66-2.41s-2.58-0.6-3.29-0.79-4.24-1.03-5.36-1.42c-1.13-0.4-2.5-0.95-2.57-0.95-0.06 0-0.49 0.28-1.52 0.63s-3.41 1.14-4.32 1.3c-0.9 0.16-1.34 0.35-1.71 0.28-0.36-0.06-0.47 0.23-1.26 0.43-0.79 0.21-2.91 0.29-3.44 0.37-0.52 0.08-2.46 1.97-2.73 2.4s-0.32 0.37 0.04 0.76c0.37 0.4-0.53 2.23-0.52 2.42 0.02 0.19-0.05 0.92 0.21 2.34 0.25 1.43 1.06 3.53 2.26 5.32s1.79 2.36 1.79 2.36 1.38-1.08 2.53-1.85c1.16-0.78 2.55-1.96 3.74-2.72 1.18-0.76 3.52-2.08 4.84-2.27 1.31-0.19 5.73 1.67 6.73 2.4 0.99 0.73 2.97 2.24 3.3 2.56 0.33 0.31 1.76 1.63 1.81 1.75 0.04 0.13 0.09 0 0.11 0.04z"/>
        <path id="path17922" fill-rule="evenodd" fill="#a40000" d="m443.46 516.35l-0.75-6.62h-30.3l-0.01 6.62c4.86-0.05 7.9 0.08 12.74-0.04 3.27-1.79 5.43-1.47 7.94 0.04h10.38z"/>
        <path id="path17892" d="m443.2 502.01c0.09 2.9-1.94 3.93-4.25 5.13-0.06 0.16-1.99 0.04-3.14-0.77-3.22-0.13-5.31-0.74-7.98-2.41-0.14-0.13-0.02-2.28-0.02-2.28 2.81-0.72 5.61-0.71 8.34-0.34 2.95-0.43 5.03-0.14 7.05 0.67z" fill-rule="evenodd" stroke="#2e3436" stroke-width="1.2783" fill="#8f5902"/>
        <path id="path17894" stroke="#2e3436" stroke-width="1.2783" fill="none" d="m435.78 506.33s0.52-0.72 0.64-1.8c0.13-1.07 0.21-3.15 0.21-3.15"/>
        <path id="path17896" d="m443.6 532.06s0.06-1.31-0.09-2.37c-0.16-1.07-0.49-2.36-0.57-2.79-0.09-0.42-0.05-0.39-0.03-0.43 0.03-0.05 0.9-1.88 2.3-3.19s2.43-1.92 2.91-1.97c0.48-0.06 0.96 0.28 0.97 0.82 0 2.48-0.81 4.42-2.2 6.42-0.65 0.82-2.05 2.79-2.59 3.19-0.54 0.39-0.74 0.32-0.7 0.32z" fill-rule="evenodd" stroke="#2e3436" stroke-width="1.2783" fill="#c17d11"/>
        <path id="path17890" d="m443.51 532.35c0.16-0.76-0.19-4.69-0.6-5.73s-1.3-2.5-1.39-2.79c1.2-1.72 1.91-3.63 2.43-5.66 0.47-1.77-0.13-3.68-0.71-5.09 0.39 3.73-1.37 6.68-3.49 9.55 0 0-1.04-1.17-1.73-1.64-0.7-0.48-3.4-2.82-4.4-3.55s-3.86-2.58-7.12-1.34c-3.26 1.23-4.86 2.94-6.27 3.92s-2.88 1.88-3.64 2.56c-0.79-0.82-0.68-0.51-2.56-3.48-0.46-0.84-1.1-2.26-1.38-3.18-0.29-0.92-0.41-2.75-0.43-3.1-0.01-0.35-1.01 1.84-1.17 2.25s-0.28 2.43 0.44 4.82c0.73 2.39 0.73 2.66 1 3.23s0.44 0.48 0.4 0.75c-0.05 0.27-0.89 1.06-1.33 2.83-0.45 1.77-0.48 4.11-0.1 5.46 0.84 7.99 9.23 12.91 17.64 11.6 7.21-1.07 17.38 0.38 14.41-11.41z" fill-rule="evenodd" stroke="#2e3436" stroke-width="1.2783" fill="url(#radialGradient4650)"/>
        <path id="path17898" d="m443.61 532.09c0.95-0.21 1.34-1.36 2.42-0.62 6.6 1.96 9.29 8.61 8.57 15.04 0.02 0.99-0.78 2.86-1.8 1.46-2.12-2.26-3.17-9.55-7.21-7.73-1.57 1.33-2.57 3.18-3.92 4.72-3.01 3.78-7.11 5.57-11.83 5.58-0.73-0.26-2.9 0.42-1.92-0.83 0.77-2.25 0.72-4.67 0.59-7.02 4.47-0.42 8.79-2.19 12.25-5.04 1.39-1.59 1.96-3.68 2.85-5.56z" fill-rule="evenodd" stroke="#2e3436" stroke-width="1.2783" fill="#555753"/>
        <path id="path17900" fill-rule="evenodd" fill="url(#radialGradient4643)" d="m429.69 531.29c1.01-2.28 5-3.69 7.69-3.42 2.46 0.25 2.93 3.82 2.09 6.04-1.17 3.07-4.54 4.12-7.28 2.31-1.7-1.13-3.17-3.42-2.5-4.93z"/>
        <path id="path17902" transform="matrix(-.089523 0 0 -.089523 503.65 508.76)" fill="#2e3436" d="m799.75-257.75a17.25 17.25 0 1 1 -34.5 0 17.25 17.25 0 1 1 34.5 0z"/>
        <path id="path17904" fill-rule="evenodd" fill="url(#radialGradient4639)" d="m423.31 529.24c-2.16-1.04-4.45-2.16-6.56-1.26-1.78 0.78-1.92 2.9-1.59 4.75 0.53 2.94 3.47 4.4 6.17 4.4 2.63-0.01 4.04-2.24 4.87-4.61 0.68-1.91-1.35-2.54-2.89-3.28z"/>
        <path id="path17906" transform="matrix(-.089523 0 0 -.089523 492.69 508.64)" fill="#2e3436" d="m799.75-257.75a17.25 17.25 0 1 1 -34.5 0 17.25 17.25 0 1 1 34.5 0z"/>
        <path id="path17908" d="m431 523.03c-0.02 0.04 0.81 1.3 1.36 1.71 0.55 0.42 0.88 0.62 1.38 0.64 0.49 0.02 0.72-0.05 0.8-0.2 0.08-0.16-0.18-0.34-0.88-0.73-0.71-0.39-2.66-1.43-2.66-1.42z" fill="#2e3436" fill-rule="evenodd"/>
        <path id="path17910" d="m427.28 523.03c0.01 0.04-0.81 1.3-1.36 1.71-0.55 0.42-0.89 0.62-1.38 0.64s-0.73-0.05-0.81-0.2c-0.07-0.16 0.18-0.34 0.89-0.73 0.7-0.39 2.66-1.43 2.66-1.42z" fill="#2e3436" fill-rule="evenodd"/>
        <path id="path17912" fill-rule="evenodd" fill="#2e3436" d="m437.39 522.89c-2.4-2.81-4.83-5.27-8.38-5.46-3.37-0.18-6.05 3.03-8.9 4.86 2.87-1.63 5.83-4 8.93-4.14 3.52 0.24 5.82 2.46 8.35 4.74z"/>
        <path id="path17914" d="m427.72 504.03l0.04-2.43c-2.64-0.5-5.29-0.61-7.94-0.35-2.86-0.32-5.7-0.15-8.26 0.65 0.19 2.89 1.92 3.96 3.99 4.99 1.56 0.05 2.86-0.11 4.13-0.59 3.01-0.23 5.71-1.08 8.04-2.27z" fill-rule="evenodd" stroke="#2e3436" stroke-width="1.2783" fill="#8f5902"/>
        <path id="path17916" stroke="#2e3436" stroke-width="1.2783" fill="none" d="m420.01 506.17s-0.26-1.18-0.31-2.1c-0.04-0.91 0.05-2.83 0.05-2.83"/>
        <path id="path17918" stroke="#2e3436" stroke-width="1.2783px" fill="none" d="m443.3 513.38c0.44-3.09-2.37-4.57-4.06-6.05"/>
        <path id="path17920" fill-rule="evenodd" fill="#8f5902" d="m441.76 510.21c-0.04-0.05-0.08-0.11-0.12-0.16-0.7-0.79-2.64-2.44-2.64-2.44s-2.6-0.56-3.32-0.75c-0.71-0.19-4.22-1.05-5.35-1.44-1.12-0.4-2.49-0.96-2.55-0.96-0.07 0-0.49 0.29-1.52 0.64s-3.42 1.16-4.32 1.32c-0.9 0.15-1.35 0.34-1.71 0.28-0.37-0.07-0.49 0.19-1.28 0.39-0.79 0.21-2.92 0.33-3.44 0.4-0.52 0.08-2.45 1.97-2.72 2.4-0.1 0.17-0.17 0.25-0.19 0.32h29.16z"/>
        <path id="path17936" d="m411.26 532.32s-0.64 0.16-2.19-2.03c-1.55-2.18-2.66-3.54-3.07-4.97-0.41-1.42-0.82-3-0.49-3.51s0.65-0.63 1.47-0.18c0.83 0.46 2.85 2.05 3.64 3.3 0.8 1.25 0.98 1.58 0.98 1.58s-0.55 1.95-0.5 2.9c0.05 0.94 0.28 2.56 0.33 2.67s-0.22 0.22-0.17 0.24z" fill-rule="evenodd" stroke="#2e3436" stroke-width="1.2783" fill="#c17d11"/>
        <path id="path17938" d="m427.46 550.44c1.47-2.25 1.03-5.06 0.97-7.59-2.08-0.24-8.01-2.6-11.82-4.26-1.72-0.91-2.84-2.58-3.73-4.26-0.94-1.23-1.98-3.24-3.81-2.94-4.88 1.03-8.26 4.55-8.93 9.54-0.29 2.58 0 5.32 1.27 7.62 1.2 1.58 2.22-0.98 2.5-1.97 0.75-2.14 0.45-5.86 2.55-6.33 4.23-0.96 7.3 6.51 11.58 8.95 2.89 1.5 6.24 1.83 9.42 1.24z" fill-rule="evenodd" stroke="#2e3436" stroke-width="1.2783" fill="#555753"/>
        <path id="path17940" stroke="#2e3436" stroke-width="1.2783px" fill="none" d="m412.25 512.76s0.66-4.95 2.39-5.26c0.73-0.13 0.56-0.48 0.56-0.48"/>
        <path id="path17942" fill-rule="evenodd" fill="url(#radialGradient4624)" d="m443.61 532.09c0.95-0.21 1.34-1.36 2.42-0.62 6.6 1.96 9.29 8.61 8.57 15.04 0.02 0.99-0.78 2.86-1.8 1.46-2.12-2.26-3.17-9.55-7.21-7.73-1.57 1.33-2.57 3.18-3.92 4.72-3.01 3.78-7.11 5.57-11.83 5.58-0.73-0.26-2.9 0.42-1.92-0.83 0.77-2.25 0.72-4.67 0.59-7.02 4.47-0.42 8.79-2.19 12.25-5.04 1.39-1.59 1.96-3.68 2.85-5.56z"/>
        <path id="path17944" d="m427.46 550.44c1.47-2.25 1.03-5.06 0.97-7.59-2.08-0.24-8.01-2.6-11.82-4.26-1.72-0.91-2.84-2.58-3.73-4.26-0.94-1.23-1.98-3.24-3.81-2.94-4.88 1.03-8.26 4.55-8.93 9.54-0.29 2.58 0 5.32 1.27 7.62 1.2 1.58 2.22-0.98 2.5-1.97 0.75-2.14 0.45-5.86 2.55-6.33 4.23-0.96 7.3 6.51 11.58 8.95 2.89 1.5 6.24 1.83 9.42 1.24z" fill="none"/>
        <path id="path17946" opacity=".62188" fill-rule="evenodd" fill="url(#radialGradient4620)" d="m426.42 550.36c1.47-2.25 1.03-5.06 0.97-7.59-2.08-0.24-6.97-2.52-10.78-4.18-1.72-0.91-2.84-2.58-3.73-4.26-0.94-1.23-1.98-3.24-3.81-2.94-4.88 1.03-8.26 4.55-8.93 9.54-0.29 2.58 0 5.32 1.27 7.62 1.2 1.58 2.22-0.98 2.5-1.97 0.75-2.14 0.45-5.86 2.55-6.33 4.23-0.96 7.3 6.51 11.58 8.95 2.89 1.5 5.2 1.75 8.38 1.16z"/>
        <path id="path17952" stroke="#2e3436" stroke-width="1.2783px" fill="none" d="m441.7 524.22c-0.49-0.63-0.57-0.61-1.58-1.15"/>
        <path id="path17954" stroke="#2e3436" stroke-width="1.2783px" fill="none" d="m416.39 522.67c-0.51 0.89-2.62 0.31-3.73 1.55"/>
        <path id="path17956" opacity=".37188" fill-rule="evenodd" fill="url(#radialGradient4615)" d="m437.32 505.99zm0.51-4.02zl-0.51 4.02c0.86 0.44 2.01 0.5 2.05 0.39 1.74-0.91 3.27-1.68 3.2-3.86-1.39-0.56-2.82-0.76-4.74-0.55z"/>
        <path id="path17958" opacity=".49375" fill-rule="evenodd" fill="url(#radialGradient4612)" d="m436.28 502.06c-0.24 0.02-0.47 0.02-0.73 0.06-1.97-0.27-3.99-0.29-6.03 0.23 0 0-0.06 1.58 0.03 1.67 1.93 1.21 3.45 1.65 5.77 1.73l0.96-3.69z"/>
        <path id="path17960" opacity=".44688" fill-rule="evenodd" fill="url(#radialGradient4609)" d="m420.15 501.82c0.24 0.02 0.47 0.02 0.72 0.06 1.98-0.27 4-0.29 6.03 0.23 0 0 0.07 1.58-0.02 1.67-1.93 1.21-3.45 1.65-5.77 1.73l-0.96-3.69z"/>
        <path id="path17962" stroke="#2e3436" stroke-width="1.2783px" fill="none" d="m429.29 508.17c0.05-4.17-0.87-3.41-1.39-4.63"/>
        <path id="path17964" d="m443.01 532.5s-0.72 4.19-4.69 6.25-13.41 5.02-18.13-0.98c-4.89-5.92-9.58-5.72-9.29-4.3-3.24 12.05-1.25 29.06 4.95 25.85 5.92-3.06 9.53 0.21 13.68 0.41 4.24 0.21 5.81-5.51 10.34-10.74 2.97-5.31 5.23-11.42 3.14-16.49z" fill-rule="evenodd" stroke="#2e3436" stroke-width="1.2779" fill="#8f5902"/>
        <path id="path17966" stroke="#2e3436" stroke-width="1.2783px" fill="none" d="m418.09 558.44c4.73-1.05 6.96-3.48 8.42-7.85"/>
        <g id="g17968" fill="#2e3436" transform="matrix(-1.4172 0 0 -1.4965 462.36 569.19)" fill-rule="evenodd">
          <path id="path17970" d="m16.087 28.909c0.234 0.156 1.598 2.65 4.17 2.3 2.572-0.351 3.274-0.546 3.391-0.039 0.117 0.506-0.078 1.608-0.974 1.598-3.581 0.174-5.89-0.475-6.587-3.859z"/>
          <path id="path17972" d="m31.545 28.909c-0.234 0.156-1.598 2.65-4.17 2.3-2.573-0.351-3.274-0.546-3.391-0.039-0.117 0.506 0.078 1.608 0.974 1.598 3.581 0.174 5.89-0.475 6.587-3.859z"/>
        </g>
      </g>
      <g id="g4868" transform="matrix(0 1 -1 0 784.37 243.89)">
        <g id="g4844" stroke="#2e3436" transform="translate(-125.32 -76.942)">
          <g id="g4846" transform="matrix(0 1.25 1.25 0 -168.81 40.414)">
            <path id="path4848" stroke-width="1.275" fill-rule="evenodd" fill="#c17d11" d="m328.75 449.31s-0.27-3.25-1.72-4.9c-1.41-1.65-3.71-2.77-5.66-3.38 0.49 1.75 1.62 4.11 1.86 7.46l-0.05 0.63c1.07-0.85 1.82-0.57 2.9-0.28 0.88-0.69 1.74 0.04 2.67 0.47z"/>
            <path id="path4850" stroke-width="1.275" fill-rule="evenodd" fill="#8f5902" d="m326.02 448.8c-1.71-0.82-2.63-0.04-3.12 0.7-0.28 0.41-1.16 2.26-1.35 2.88-0.19 0.63-0.41 1.47-0.31 1.7s0.85 1 2 1.29 1.79 0.36 2.73 0.36c0.93 0 2.64-0.08 3.87-0.92 1.23-0.85 0.27-3.14-0.18-4.01-0.9-1.74-2-2.84-3.64-2z"/>
            <path id="path4852" stroke-width="1.275" fill-opacity="0" d="m321.26 454.05c0.77-2.22 2.61-2.77 4.84-1.77 2.3-1.18 3.18 0.29 4.31 1.65-0.01 0.21-0.18 0.93-1.09 1.2-0.92 0.27-1.64 0.64-3.53 0.58-1.9-0.06-3.01-0.49-3.44-0.73-0.44-0.25-1.12-0.91-1.09-0.93z"/>
            <path id="path4854" stroke-width="1.275px" fill="none" d="m326.09 448.69c-0.63 0.14-0.38 3.65 0.06 3.6"/>
          </g>
          <g id="g4856" transform="matrix(-.19464 -1.5818 -1.5818 .19464 400.32 456.85)">
            <g id="g4858" fill-rule="evenodd">
              <path id="path4860" fill="#c17d11" d="m7.856 34.506c0.6063-3.515 2.72-4.134 5.388-5.547-1.05 2.083-1.242 3.175-1.282 5.486-0.901 0.991-2.9125 1.151-4.106 0.061z"/>
              <path id="path4862" fill="#8f5902" d="m9.5168 34.355c-1.2873-0.654-1.777 0.358-2.461 1.261-0.5261 1.065-0.6314 1.665-0.6561 1.919-0.0248 0.254-0.0434 0.545 0.099 0.768s1.0647 0.984 2.5565 1.17c1.4918 0.185 2.6988 0.031 3.1818-0.112 0.483-0.142 1.071-0.625 1.071-0.829-0.24-0.891-0.608-1.887-0.916-2.843-0.384-1.189-1.031-1.784-2.8752-1.334z"/>
              <path id="path4864" fill="#8f5902" d="m9.2306 36.919c-1.2833-0.528-2.5954-0.074-2.8185 0.684-0.0558 0.149-0.0641 0.644 0.233 0.873s1.2018 0.908 1.9446 0.951c1.4753 0.301 3.1493 0.159 4.2933-0.419 0.844-0.631 0.083-1.456-0.397-1.821-1.113-0.388-2.062-0.67-3.2554-0.268z"/>
            </g>
            <path id="path4866" stroke-width="1px" fill="none" d="m9.8525 34.282c-0.4064-0.148-0.8947 2.505-0.5781 2.672"/>
          </g>
        </g>
        <path id="path6285" fill-rule="evenodd" fill="url(#radialGradient4827)" d="m231.04 362.37s-2.3 2.66-2.97 4.99c-0.66 2.34-0.66 4.33-0.53 4.86 0.12 0.54 0.79 2.28 1.48 3.07 0.7 0.79 2.65 2.4 2.65 2.4s2.58 0.6 3.29 0.79c0.71 0.18 4.23 1.02 5.35 1.42 1.12 0.39 2.49 0.94 2.55 0.94 0.07 0 0.49-0.28 1.52-0.63s3.41-1.14 4.31-1.29c0.9-0.16 1.34-0.35 1.7-0.29 0.37 0.07 0.48-0.22 1.27-0.42 0.78-0.21 2.9-0.29 3.42-0.37s2.46-1.97 2.73-2.4c0.27-0.42 0.32-0.36-0.05-0.75-0.36-0.4 0.54-2.23 0.53-2.42-0.02-0.19 0.04-0.91-0.21-2.33s-1.06-3.52-2.26-5.31c-1.2-1.78-1.78-2.35-1.78-2.35s-1.37 1.07-2.53 1.85c-1.15 0.77-2.54 1.95-3.72 2.71-1.19 0.76-3.52 2.07-4.83 2.26s-5.72-1.67-6.71-2.39c-1-0.73-2.97-2.24-3.3-2.55-0.33-0.32-1.75-1.63-1.8-1.75-0.05-0.13-0.09 0-0.11-0.04z"/>
        <path id="path6287" d="m227.16 352.56c-0.16 0.75 0.19 4.67 0.6 5.71s1.29 2.49 1.39 2.78c-1.21 1.72-1.91 3.62-2.43 5.65-0.48 1.76 0.12 3.67 0.71 5.07-0.39-3.71 1.37-6.66 3.48-9.52 0 0 1.03 1.17 1.73 1.64 0.69 0.47 3.39 2.81 4.38 3.54 1 0.72 3.86 2.57 7.11 1.34s4.84-2.94 6.25-3.92c1.4-0.98 2.87-1.88 3.63-2.55 0.78 0.82 0.68 0.51 2.55 3.47 0.46 0.84 1.09 2.26 1.38 3.17 0.28 0.92 0.41 2.75 0.42 3.09 0.02 0.35 1.01-1.83 1.17-2.24s0.29-2.43-0.44-4.81-0.73-2.65-0.99-3.22c-0.27-0.57-0.45-0.47-0.4-0.74s0.89-1.06 1.33-2.83 0.47-4.1 0.09-5.44c-0.83-7.97-9.2-12.88-17.59-11.57-7.19 1.06-17.33-0.38-14.37 11.38z" fill-rule="evenodd" stroke="#2e3436" stroke-width="1.275" fill="url(#radialGradient4824)"/>
        <path id="path6289" d="m227.46 382.81c-0.09-2.88 1.94-3.92 4.24-5.11 0.06-0.16 1.99-0.04 3.13 0.77 3.22 0.12 5.31 0.74 7.97 2.4 0.13 0.13 0.02 2.28 0.02 2.28-2.81 0.71-5.6 0.7-8.33 0.33-2.93 0.44-5.01 0.14-7.03-0.67z" fill-rule="evenodd" stroke="#2e3436" stroke-width="1.275" fill="#8f5902"/>
        <path id="path6291" stroke="#2e3436" stroke-width="1.275" fill="none" d="m234.86 378.5s-0.51 0.73-0.63 1.8c-0.13 1.07-0.22 3.15-0.22 3.15"/>
        <path id="path6297" d="m227.07 352.84s-0.06 1.31 0.09 2.37c0.16 1.06 0.48 2.36 0.57 2.78s0.05 0.39 0.02 0.44c-0.02 0.04-0.89 1.87-2.28 3.18-1.4 1.3-2.43 1.9-2.91 1.96s-0.96-0.28-0.97-0.83c0-2.47 0.81-4.4 2.2-6.39 0.65-0.83 2.04-2.79 2.58-3.18s0.74-0.33 0.7-0.33z" fill-rule="evenodd" stroke="#2e3436" stroke-width="1.275" fill="#c17d11"/>
        <path id="path6299" d="m227.06 352.81c-0.95 0.21-1.34 1.36-2.41 0.62-6.59-1.95-9.28-8.58-8.56-15-0.02-0.98 0.78-2.85 1.8-1.46 2.12 2.26 3.16 9.54 7.19 7.72 1.57-1.33 2.57-3.18 3.91-4.71 3.01-3.77 7.09-5.56 11.8-5.56 0.73 0.26 2.9-0.42 1.92 0.82-0.77 2.25-0.72 4.66-0.59 7-4.46 0.42-8.77 2.19-12.22 5.03-1.39 1.58-1.96 3.67-2.84 5.54z" fill-rule="evenodd" stroke="#2e3436" stroke-width="1.275" fill="#555753"/>
        <path id="path6301" fill-rule="evenodd" fill="url(#radialGradient4815)" d="m240.95 353.61c-1.01 2.27-4.99 3.69-7.68 3.41-2.45-0.24-2.92-3.81-2.08-6.02 1.17-3.07 4.52-4.11 7.26-2.3 1.7 1.12 3.16 3.4 2.5 4.91z"/>
        <path id="path6303" transform="matrix(.089290 0 0 .089290 167.17 376.09)" fill="#2e3436" d="m799.75-257.75a17.25 17.25 0 1 1 -34.5 0 17.25 17.25 0 1 1 34.5 0z"/>
        <path id="path6305" fill-rule="evenodd" fill="url(#radialGradient4811)" d="m247.31 355.66c2.15 1.03 4.43 2.15 6.53 1.25 1.79-0.77 1.92-2.89 1.59-4.73-0.52-2.94-3.45-4.39-6.15-4.39-2.63 0.01-4.03 2.23-4.86 4.59-0.67 1.91 1.35 2.54 2.89 3.28z"/>
        <path id="path6307" transform="matrix(.089290 0 0 .089290 178.1 376.2)" fill="#2e3436" d="m799.75-257.75a17.25 17.25 0 1 1 -34.5 0 17.25 17.25 0 1 1 34.5 0z"/>
        <path id="path6309" d="m239.64 361.85c0.01-0.04-0.81-1.29-1.36-1.71-0.55-0.41-0.88-0.61-1.37-0.63-0.5-0.02-0.73 0.04-0.81 0.2-0.08 0.15 0.18 0.33 0.88 0.72 0.71 0.39 2.66 1.43 2.66 1.42z" fill="#2e3436" fill-rule="evenodd"/>
        <path id="path6311" d="m243.34 361.85c-0.01-0.04 0.82-1.29 1.37-1.71 0.54-0.41 0.88-0.61 1.37-0.63s0.72 0.04 0.8 0.2c0.08 0.15-0.18 0.33-0.88 0.72s-2.66 1.43-2.66 1.42z" fill="#2e3436" fill-rule="evenodd"/>
        <path id="path6313" fill-rule="evenodd" fill="#2e3436" d="m233.27 361.99c2.38 2.81 4.81 5.26 8.35 5.45 3.37 0.18 6.04-3.02 8.87-4.85-2.86 1.62-5.81 3.99-8.9 4.13-3.51-0.24-5.8-2.46-8.32-4.73z"/>
        <path id="path6315" d="m242.91 380.8l-0.04 2.43c2.63 0.5 5.27 0.6 7.92 0.34 2.85 0.32 5.69 0.15 8.24-0.65-0.19-2.87-1.92-3.95-3.99-4.97-1.55-0.05-2.85 0.11-4.12 0.59-3 0.23-5.68 1.07-8.01 2.26z" fill-rule="evenodd" stroke="#2e3436" stroke-width="1.275" fill="#8f5902"/>
        <path id="path6317" stroke="#2e3436" stroke-width="1.275" fill="none" d="m250.6 378.67s0.26 1.17 0.3 2.09c0.05 0.91-0.04 2.82-0.04 2.82"/>
        <path id="path6323" d="m259.33 352.59s0.63-0.16 2.18 2.02c1.54 2.18 2.65 3.53 3.06 4.96 0.41 1.42 0.82 2.99 0.49 3.5-0.33 0.5-0.65 0.63-1.47 0.17-0.82-0.45-2.84-2.03-3.63-3.28s-0.98-1.58-0.98-1.58 0.55-1.94 0.5-2.89c-0.04-0.94-0.28-2.55-0.33-2.66-0.04-0.12 0.22-0.23 0.18-0.24z" fill-rule="evenodd" stroke="#2e3436" stroke-width="1.275" fill="#c17d11"/>
        <path id="path6325" d="m243.16 334.52c-1.46 2.24-1.02 5.03-0.96 7.56 2.07 0.24 7.99 2.59 11.79 4.25 1.71 0.91 2.83 2.58 3.72 4.25 0.94 1.23 1.98 3.23 3.8 2.94 4.87-1.04 8.24-4.54 8.91-9.52 0.28-2.58-0.01-5.31-1.27-7.6-1.2-1.58-2.21 0.98-2.5 1.96-0.74 2.13-0.44 5.85-2.54 6.32-4.22 0.95-7.28-6.5-11.55-8.93-2.88-1.5-6.23-1.82-9.4-1.23z" fill-rule="evenodd" stroke="#2e3436" stroke-width="1.275" fill="#555753"/>
        <path id="path6327" stroke="#2e3436" stroke-width="1.275px" fill="none" d="m258.42 371.52c-0.24 3.4-1.03 4.85-3.03 6.48"/>
        <path id="path6329" stroke="#2e3436" stroke-width="1.275px" fill="none" d="m228.29 373.48c0.29 1.97 1.74 3.59 3.12 4.03"/>
        <path id="path6331" fill-rule="evenodd" fill="url(#radialGradient4796)" d="m227.06 352.81c-0.95 0.21-1.34 1.36-2.41 0.62-6.59-1.95-9.28-8.58-8.56-15-0.02-0.98 0.78-2.85 1.8-1.46 2.12 2.26 3.16 9.54 7.19 7.72 1.57-1.33 2.57-3.18 3.91-4.71 3.01-3.77 7.09-5.56 11.8-5.56 0.73 0.26 2.9-0.42 1.92 0.82-0.77 2.25-0.72 4.66-0.59 7-4.46 0.42-8.77 2.19-12.22 5.03-1.39 1.58-1.96 3.67-2.84 5.54z"/>
        <path id="path6333" d="m243.16 334.52c-1.46 2.24-1.02 5.03-0.96 7.56 2.07 0.24 7.99 2.59 11.79 4.25 1.71 0.91 2.83 2.58 3.72 4.25 0.94 1.23 1.98 3.23 3.8 2.94 4.87-1.04 8.24-4.54 8.91-9.52 0.28-2.58-0.01-5.31-1.27-7.6-1.2-1.58-2.21 0.98-2.5 1.96-0.74 2.13-0.44 5.85-2.54 6.32-4.22 0.95-7.28-6.5-11.55-8.93-2.88-1.5-6.23-1.82-9.4-1.23z" fill="none"/>
        <path id="path6335" opacity=".62188" fill-rule="evenodd" fill="url(#radialGradient4792)" d="m244.2 334.6c-1.46 2.24-1.03 5.03-0.96 7.56 2.07 0.24 6.95 2.51 10.75 4.17 1.71 0.91 2.83 2.58 3.72 4.25 0.94 1.23 1.98 3.23 3.8 2.94 4.87-1.04 8.24-4.54 8.91-9.52 0.28-2.58-0.01-5.31-1.27-7.6-1.2-1.58-2.21 0.98-2.5 1.96-0.74 2.13-0.44 5.85-2.54 6.32-4.22 0.95-7.28-6.5-11.55-8.93-2.88-1.5-5.19-1.75-8.36-1.15z"/>
        <path id="path6341" stroke="#2e3436" stroke-width="1.275px" fill="none" d="m228.96 360.66c0.49 0.64 0.57 0.61 1.58 1.16"/>
        <path id="path6343" stroke="#2e3436" stroke-width="1.275px" fill="none" d="m254.21 362.21c0.5-0.89 2.61-0.31 3.72-1.55"/>
        <path id="path6345" opacity=".37188" fill-rule="evenodd" fill="url(#radialGradient4785)" d="m233.33 378.85zm-0.51 4zl0.51-4c-0.86-0.44-2-0.5-2.04-0.39-1.74 0.9-3.26 1.67-3.19 3.85 1.38 0.56 2.81 0.75 4.72 0.54z"/>
        <path id="path6347" opacity=".49375" fill-rule="evenodd" fill="url(#radialGradient4782)" d="m234.37 382.77c0.24-0.03 0.47-0.02 0.72-0.06 1.97 0.27 3.99 0.28 6.02-0.23 0 0 0.07-1.57-0.03-1.67-1.92-1.2-3.44-1.64-5.76-1.73l-0.95 3.69z"/>
        <path id="path6349" opacity=".44688" fill-rule="evenodd" fill="url(#radialGradient4779)" d="m250.45 383.01c-0.23-0.03-0.46-0.02-0.72-0.06-1.96 0.27-3.98 0.28-6.01-0.23 0 0-0.07-1.58 0.03-1.67 1.92-1.2 3.43-1.64 5.75-1.73l0.95 3.69z"/>
        <path id="path2757" fill="#2e3436" d="m242.36 330.72c-0.12 0-0.25 0.08-0.37 0.08-3.74 0.17-8.65 1.64-11.59 3.71-2.99 2.11-5.7 6.52-5.72 9.31 0 0.87-0.2 1.86-0.45 2.23-1.1 2.5 0.6 4.77 1.08 7.15l2.39 0.49c0.54-1.88 1.21-2.21 1.67-4 0.67-1.54 2.14-3.5 5.1-4.53 1.33-0.47 2.9-0.92 4.81-1.01 0.32-0.01 0.64-0.07 0.98-0.08h0.15c9.5-0.11 15.73 2.04 18.25 11.25l4.33 0.77c1.86-3.28 5.87-3.75 5.47-7.49-0.29-1.55-0.61-2.12-1.8-3.38-0.8-0.84-1.66-2.19-1.96-2.96-0.7-1.81-4.34-5.51-6.47-6.6-0.89-0.45-2.39-0.9-3.31-1.07-1.94-0.35-3.52-1.07-4.66-2.06-0.46-0.39-1.47-0.8-2.33-0.9-0.84-0.1-2.04-0.3-2.63-0.5-0.77-0.25-1.7-0.42-2.79-0.41h-0.15z"/>
        <path id="path2171" d="m-81.84 115.15l-25.05-8.5-21.19 15.82 0.34-26.445-21.59-15.27 25.25-7.85 7.85-25.255 15.27 21.593 26.444-0.338-15.817 21.195 8.493 25.05z" fill="#ef2929" transform="matrix(.085087 -.018186 .018186 .085087 249.49 328.66)"/>
        <path id="path3273" fill="#2e3436" d="m224.49 351.32c-0.54 0.6-1.23 1.04-2.48 1.55-0.69 0.27-1.59 0.72-2 0.98l-0.73 0.47 0.55 0.33c0.29 0.19 0.63 0.7 0.79 1.07 0.1 0.25 0.18 0.39 0.18 0.52-0.01 0.01 0 0.04 0 0.05v0.09h-0.06c-0.01 0.02 0.01 0.08 0 0.09-0.07 0.09-0.21 0.14-0.37 0.24-0.18 0.12-0.31 0.24-0.36 0.33-0.01 0.01-0.05 0.02-0.06 0.04v0.05c0.02 0.06 0.11 0.12 0.18 0.19v0.04h0.06v0.05c0.01 0.02-0.01 0.03 0 0.05 0.14 0.31 0.29 1.07 0.31 2.1 0.02 1.92-0.03 2.02-0.73 2.58-0.28 0.23-0.49 0.39-0.55 0.47v0.09c0.01 0.01 0.06 0 0.06 0 0.06 0.01 0.15 0.05 0.25 0.05h0.06c0.27-0.02 0.72-0.18 0.97-0.33 0.22-0.13 0.42-0.2 0.6-0.23 0.19-0.03 0.35 0 0.55 0.09 0.19 0.1 0.45 0.29 0.72 0.52 0.89 0.75 0.92 1.1 0.18 1.87-0.61 0.64-1.65 0.83-2.18 0.33-0.1-0.1-0.26-0.24-0.36-0.28h-0.12v-0.05h-0.12c-0.02 0.01-0.05 0.04-0.06 0.05-0.01 0-0.06-0.01-0.06 0-0.01 0 0 0.04 0 0.05-0.01 0-0.06 0.03-0.06 0.04v0.24c0.06 0.2 0.49 0.64 1.03 1.03 0.42 0.3 0.69 0.53 0.78 0.7 0.02 0.03 0.06 0.07 0.06 0.09 0.01 0.01 0.01 0.04 0 0.05v0.05c0 0.01-0.05-0.01-0.06 0 0 0.01 0.01 0.03 0 0.04 0 0.01-0.05 0.05-0.06 0.05-0.02 0.01-0.09 0.04-0.12 0.05-0.14 0.05-0.32 0.11-0.6 0.14-0.21 0.02-0.4 0.04-0.49 0.09v0.05c-0.04 0.04-0.05 0.08-0.06 0.14-0.01 0.05-0.01 0.12 0 0.19 0.02 0.1 0.07 0.19 0.12 0.28 0.03 0.04 0.09 0.1 0.12 0.14 0.3 0.27 0.79 0.47 1.46 0.47 0.36 0 0.67 0.03 0.84 0.14 0.01 0 0 0.04 0 0.04 0.02 0.01 0.05 0.04 0.07 0.05 0 0.01 0.05 0 0.06 0 0 0.02-0.01 0.08 0 0.09 0 0.02 0.05 0.04 0.06 0.05 0 0.02-0.01 0.03 0 0.05v0.14c-0.02 0.04-0.04 0.1-0.06 0.14-0.04 0.05-0.13 0.09-0.19 0.14-0.06 0.06-0.09 0.1-0.12 0.14v0.05c0 0.01-0.05 0.03-0.06 0.04v0.05c0.01 0.01 0.06 0 0.06 0h0.18c0.02 0 0.05 0.01 0.07 0 0.01 0 0.04-0.04 0.06-0.05 0 0 0.05 0.01 0.06 0 0 0-0.01-0.04 0-0.04 0-0.01 0.05 0 0.06 0v-0.05c0.06-0.06 0.15-0.15 0.18-0.23 0.01-0.03-0.02-0.07 0-0.1 0.04-0.07 0.11-0.13 0.18-0.18 0.01-0.01 0.05-0.05 0.06-0.05 0.01-0.01 0.05 0 0.06 0 0.01-0.01 0-0.04 0-0.05h0.06c0.03-0.01 0.09 0 0.12 0h0.06c0.02 0.01 0.05 0 0.06 0h0.06c0.01 0.01 0 0.04 0 0.05 0.01 0 0.06-0.01 0.06 0 0.02 0.02 0 0.07 0 0.09 0.03 0.09 0 0.22-0.06 0.42-0.03 0.12 0 0.25 0 0.33 0.01 0.03 0 0.07 0 0.1 0.01 0.02 0.05 0.07 0.06 0.09 0.01 0 0 0.04 0 0.05 0.01 0 0.06-0.01 0.07 0 0 0-0.01 0.04 0 0.04 0.01 0.01 0.04 0 0.06 0h0.06c0 0.01-0.01 0.05 0 0.05h0.06c0.03 0 0.08-0.04 0.12-0.05 0.01 0 0.04 0.01 0.06 0 0.06-0.02 0.11-0.05 0.18-0.09 0.04-0.03 0.14-0.06 0.18-0.09 0.02-0.02 0.04-0.04 0.06-0.05 0.01-0.01 0-0.04 0-0.05h0.24c0.06 0.02 0.13 0.05 0.19 0.1 0.31 0.27 0.53 0.95 0.54 1.73 0.01 1.31 0.38 1.75 1.76 2.53 0.59 0.33 1.02 0.56 1.27 0.61h0.12v-0.05h0.06v-0.05s0.05 0.02 0.06 0v-0.04c-0.01-0.01-0.06-0.04-0.06-0.05-0.01-0.02 0.01-0.07 0-0.09s-0.06-0.08-0.06-0.1v-0.04c0-0.07 0.06-0.13 0.12-0.19 0.04-0.04 0.13-0.11 0.18-0.14 0.03-0.02 0.09-0.03 0.12-0.05 0.06-0.02 0.13-0.08 0.18-0.09 0.04-0.01 0.09 0 0.13 0h0.42s-0.01 0.04 0 0.04c0 0.01 0.06 0 0.06 0 0.01 0.01 0.06 0.05 0.06 0.05 0.01 0.01 0.05 0.04 0.06 0.05 0.01 0-0.01 0.04 0 0.05 0.01 0 0.06 0.03 0.06 0.04v0.05c0.01 0.01-0.01 0.03 0 0.05 0.01 0.03 0 0.1 0 0.14h0.06c0.06 0.21 0.46 0.76 0.97 1.21 0.4 0.36 0.64 0.53 0.79 0.61 0 0.01 0.05 0.05 0.06 0.05h0.06s0.05-0.04 0.06-0.05v-0.04c0.01-0.04 0-0.08 0-0.14 0-0.25-0.26-0.65-0.61-0.89-0.3-0.22-0.52-0.5-0.6-0.71-0.01-0.03 0-0.06 0-0.09v-0.09c0-0.02-0.01-0.03 0-0.05 0-0.01-0.01-0.04 0-0.05 0.01-0.04 0.03-0.11 0.06-0.14 0 0 0.05 0.01 0.06 0 0 0-0.01-0.04 0-0.05 0 0 0.05 0.01 0.06 0 0.01 0 0.05-0.04 0.06-0.04h0.06c0.02-0.01 0.04-0.05 0.06-0.05 1.03-0.09 5.54 0.58 6.42 0.94 0.01 0 0.04-0.01 0.06 0 0.01 0 0.05 0.04 0.06 0.04 0.26 0.18 0.47 0.29 0.6 0.33h0.19v-0.04c0-0.01 0.05-0.05 0.06-0.05v-0.19c0.01-0.04 0.07-0.1 0.12-0.14 0.34-0.29 1.36-0.67 2.36-0.84 0.32-0.06 0.53-0.07 0.66-0.05h0.06c0.01 0.01 0 0.04 0 0.05h0.07s0.05 0.04 0.06 0.04c0.04 0.05 0.09 0.15 0.12 0.24 0.02 0.05 0.01 0.09 0.06 0.14 0.05 0.06 0.17 0.14 0.24 0.19 0.04 0.02 0.08 0.03 0.12 0.04 0.06 0.03 0.18 0.04 0.24 0.05 0.1 0.01 0.17 0.06 0.24 0.09 0.02 0.01 0.05 0 0.07 0v0.05h0.06s-0.01 0.04 0 0.05 0.05-0.01 0.06 0c0.14 0.13 0.21 0.38 0.3 0.75 0.09 0.34 0.15 0.53 0.24 0.65 0.01 0.01 0.06 0.05 0.06 0.05 0.02 0.02 0.04 0.04 0.06 0.05h0.18c0.02-0.01 0.05 0 0.06 0 0.12-0.04 0.29-0.12 0.49-0.24 0.12-0.07 0.17-0.14 0.24-0.23 0.01-0.01 0.06-0.04 0.06-0.05 0.13-0.2 0.15-0.48 0.12-0.98-0.03-0.51 0.08-0.91 0.24-1.08 0.03-0.02 0.04-0.03 0.07-0.05 0.02-0.01 0.09-0.04 0.12-0.04 0.03-0.01 0.08-0.01 0.12 0 0.18 0.02 0.42 0.13 0.66 0.37l0.43 0.47 0.48-0.47c0.16-0.15 0.33-0.23 0.49-0.28 0.02-0.01 0.09-0.04 0.12-0.05h0.18v0.05c0.05 0.03 0.08 0.02 0.12 0.05l0.06 0.04c0.01 0.02-0.01 0.04 0 0.05s0.06 0 0.06 0c0.01 0.01 0 0.04 0 0.05v0.19c-0.01 0.01-0.05 0.03-0.06 0.04-0.08 0.13-0.23 0.28-0.48 0.47-0.35 0.26-0.64 0.82-0.73 1.27l0.42 0.42 0.12-0.24c0.03-0.02 0.1-0.07 0.12-0.09 0.02-0.01 0.05-0.04 0.07-0.05 0.1-0.07 0.24-0.12 0.36-0.14 0.04 0 0.08-0.05 0.12-0.05 0.03 0.01 0.09 0.05 0.12 0.05 0.06 0.02 0.13 0.02 0.18 0.05 0.08 0.05 0.14 0.15 0.18 0.23 0.01 0.02 0.06 0.04 0.06 0.05 0.02 0.02 0.05 0.03 0.06 0.05h0.07c0.01 0-0.02 0.03 0 0.04h0.06c0.01 0.01 0.05 0.05 0.06 0.05h0.18c0.01-0.01 0.05-0.04 0.06-0.05 0.21-0.02 0.65 0.08 1.03 0.24 0.54 0.22 1.43 0.3 2.9 0.28 1.15-0.02 2.3 0.02 2.61 0.09 0.09 0.03 0.23 0.04 0.3 0.05h0.18c0.01-0.01 0.05-0.04 0.06-0.05v-0.14s0.01-0.04 0-0.05-0.04-0.02-0.06-0.04c0-0.01-0.05-0.04-0.06-0.05-0.07-0.05-0.19-0.14-0.3-0.19-0.87-0.36-1.38-1.21-1.58-2.71l-0.18-1.5 1.03-0.66c0.69-0.47 0.98-0.85 0.85-1.12-0.03-0.04-0.08-0.1-0.12-0.14-0.14-0.11-0.38-0.2-0.67-0.28-0.17-0.06-0.32-0.13-0.42-0.19-0.01-0.01-0.06-0.04-0.06-0.05-0.01 0-0.06-0.04-0.06-0.05-0.01 0-0.06-0.03-0.06-0.04-0.01-0.01 0-0.04 0-0.05v-0.14s-0.01-0.04 0-0.05h0.06c0.03-0.02 0.02-0.07 0.06-0.09h0.06c0.04-0.02 0.07-0.03 0.12-0.05h0.06s-0.01-0.04 0-0.04c0.01-0.01 0.05 0 0.06 0 0.03-0.01 0.09 0 0.12 0 0.47 0.01 1.22 0.36 1.76 0.79 0.25 0.19 0.69 0.33 0.97 0.33 0.09 0 0.18 0.03 0.24 0.05 0.04 0.01 0.09 0.03 0.12 0.04 0.01 0.02-0.01 0.03 0 0.05v0.05c-0.01 0.05-0.03 0.11-0.06 0.19-0.03 0.07 0 0.18 0 0.23v0.09c0 0.01 0.05 0.05 0.06 0.05h0.06c0.01 0 0.05 0.04 0.06 0.05h0.18c0.58-0.09 1.29-0.83 1.45-1.55 0.09-0.38 0.4-1.01 0.67-1.36l0.48-0.61-0.78-0.37c-0.31-0.14-0.62-0.34-0.79-0.52-0.05-0.05-0.1-0.09-0.12-0.14-0.06-0.14-0.05-0.3 0-0.42 0.01-0.03 0.04-0.11 0.06-0.14 0.01-0.02 0.04-0.03 0.06-0.05s0.09-0.07 0.12-0.09c0.05-0.03 0.12-0.07 0.18-0.09 0.08-0.03 0.16-0.04 0.24-0.05 0.12-0.01 0.3-0.03 0.43 0 0.14 0.03 0.22 0.05 0.3 0.05h0.12c0.01-0.01 0-0.05 0-0.05h0.06c0.01-0.01 0-0.04 0-0.05 0.04-0.07 0.06-0.18 0.06-0.33 0-0.27 0.2-0.81 0.43-1.21 0.56-1 0.73-2.74 0.6-6.28-0.07-2.1-0.3-2.7-1.03-2.91-0.04-0.01-0.13-0.06-0.18-0.09-0.17-0.1-0.31-0.28-0.48-0.47-0.88 0.41-1.76 0.84-1.76 0.84s0.15 4.55-4.14 6.17c-4.48 2.79-8.63 6.85-11.95 6.99-7.2-0.77-10.5-4.93-13.31-8.86-0.98-1.4-1.63-3.66-1.29-5.7 0.04-0.25 0.03-0.61 0.06-0.94l-3.51-1.59zm30.09 19.25s0.05 0.01 0.06 0h0.24c0 0.01 0.06 0 0.06 0 0.01 0.01 0 0.05 0 0.05h0.06v0.05c-0.01 0.01 0.01 0.04 0 0.05v0.04c-0.01 0.01 0.01 0.04 0 0.05h-0.06c-0.01 0.01 0.01 0.04 0 0.05-0.04 0.04-0.11 0.1-0.18 0.14-0.06 0.03-0.18 0.07-0.24 0.09-0.03 0.01-0.04 0-0.06 0h-0.31c-0.01-0.01-0.05-0.04-0.06-0.05v-0.09c0.01-0.01 0-0.04 0-0.05v-0.04c0.01-0.01 0.06 0 0.06 0 0.01-0.01 0-0.04 0-0.05 0.01-0.01 0.06-0.04 0.06-0.05 0.01 0 0.06-0.04 0.06-0.04 0.06-0.04 0.18-0.08 0.25-0.1 0.02-0.01 0.03-0.04 0.06-0.05z"/>
      </g>
    </g>
  </g>
  <metadata>
    <rdf:RDF>
      <cc:Work>
        <dc:format>image/svg+xml</dc:format>
        <dc:type rdf:resource="http://purl.org/dc/dcmitype/StillImage"/>
        <cc:license rdf:resource="http://creativecommons.org/licenses/publicdomain/"/>
        <dc:publisher>
          <cc:Agent rdf:about="http://openclipart.org/">
            <dc:title>Openclipart</dc:title>
          </cc:Agent>
        </dc:publisher>
        <dc:title>GNU Circle</dc:title>
        <dc:date>2008-02-24T07:09:47</dc:date>
        <dc:description>This is a gnu_circle. They are gnu cows by tonyk.</dc:description>
        <dc:source>http://openclipart.org/detail/14774/gnu-circle-by-milker</dc:source>
        <dc:creator>
          <cc:Agent>
            <dc:title>milker</dc:title>
          </cc:Agent>
        </dc:creator>
        <dc:subject>
          <rdf:Bag>
            <rdf:li>animal</rdf:li>
            <rdf:li>antelope</rdf:li>
            <rdf:li>cartoon</rdf:li>
            <rdf:li>character</rdf:li>
            <rdf:li>circle</rdf:li>
            <rdf:li>clip art</rdf:li>
            <rdf:li>clipart</rdf:li>
            <rdf:li>cow</rdf:li>
            <rdf:li>gnu</rdf:li>
            <rdf:li>icon</rdf:li>
            <rdf:li>image</rdf:li>
            <rdf:li>media</rdf:li>
            <rdf:li>png</rdf:li>
            <rdf:li>public domain</rdf:li>
            <rdf:li>remix</rdf:li>
            <rdf:li>svg</rdf:li>
          </rdf:Bag>
        </dc:subject>
      </cc:Work>
      <cc:License rdf:about="http://creativecommons.org/licenses/publicdomain/">
        <cc:permits rdf:resource="http://creativecommons.org/ns#Reproduction"/>
        <cc:permits rdf:resource="http://creativecommons.org/ns#Distribution"/>
        <cc:permits rdf:resource="http://creativecommons.org/ns#DerivativeWorks"/>
      </cc:License>
    </rdf:RDF>
  </metadata>
</svg>
