<?xml version="1.0" encoding="UTF-8" standalone="no"?>
<!-- Created with Inkscape (http://www.inkscape.org/) -->

<svg
   xmlns:dc="http://purl.org/dc/elements/1.1/"
   xmlns:cc="http://creativecommons.org/ns#"
   xmlns:rdf="http://www.w3.org/1999/02/22-rdf-syntax-ns#"
   xmlns:svg="http://www.w3.org/2000/svg"
   xmlns="http://www.w3.org/2000/svg"
   xmlns:sodipodi="http://sodipodi.sourceforge.net/DTD/sodipodi-0.dtd"
   xmlns:inkscape="http://www.inkscape.org/namespaces/inkscape"
   width="600mm"
   height="571.12268mm"
   viewBox="0 0 600 571.12268"
   version="1.1"
   id="svg8"
   inkscape:version="0.92.1 r15371"
   sodipodi:docname="ChurchCircle4Fields.svg">
  <defs
     id="defs2" />
  <sodipodi:namedview
     id="base"
     pagecolor="#ffffff"
     bordercolor="#666666"
     borderopacity="1.0"
     inkscape:pageopacity="0.0"
     inkscape:pageshadow="2"
     inkscape:zoom="0.21806641"
     inkscape:cx="-120.28433"
     inkscape:cy="1411.5714"
     inkscape:document-units="mm"
     inkscape:current-layer="layer1"
     showgrid="false"
     fit-margin-top="0"
     fit-margin-left="0"
     fit-margin-right="0"
     fit-margin-bottom="0"
     inkscape:window-width="1536"
     inkscape:window-height="801"
     inkscape:window-x="-8"
     inkscape:window-y="-8"
     inkscape:window-maximized="1" />
  <metadata
     id="metadata5">
    <rdf:RDF>
      <cc:Work
         rdf:about="">
        <dc:format>image/svg+xml</dc:format>
        <dc:type
           rdf:resource="http://purl.org/dc/dcmitype/StillImage" />
        <dc:title></dc:title>
      </cc:Work>
    </rdf:RDF>
  </metadata>
  <g
     inkscape:label="Layer 1"
     inkscape:groupmode="layer"
     id="layer1"
     transform="translate(70.622519,329.90747)">
    <path
       style="fill:#000000;stroke-width:1.56986654"
       d="M 194.32278,239.26898 C 130.62995,230.00903 80.933911,206.0392 38.7467,164.23019 -4.933403,120.94168 -29.674431,70.289693 -42.87796,-2.8789314 -51.328936,-49.710806 -41.930267,-123.67661 -22.373148,-164.24811 c 13.3265333,-27.64603 35.963313,-58.73469 58.313227,-80.0856 32.280662,-30.83776 68.562351,-52.69944 108.931911,-65.63741 19.67005,-6.30403 58.90673,-15.75942 75.6543,-18.23145 46.74133,-6.89931 118.74191,7.73457 163.22307,33.17446 15.58904,8.91579 43.49366,29.43775 58.0977,42.72696 16.76039,15.25141 35.70137,40.54739 49.00692,65.4495 15.70309,29.38932 26.18523,59.72695 34.11695,98.74206 3.71873,18.291967 4.32081,25.061553 4.39814,49.450798 0.0821,25.880979 -0.35182,30.5021867 -5.15847,54.945321 -11.71774,59.587711 -17.03178,73.717267 -39.72584,105.627081 -43.76437,61.5366 -105.3585,99.49047 -185.44516,114.27004 -27.74386,5.11996 -80.10935,6.66283 -104.71682,3.08533 z m 89.4824,-14.95027 c 49.19234,-6.30812 93.60068,-24.30617 136.38254,-55.27387 28.81351,-20.85664 60.39533,-61.01737 74.73074,-95.030528 6.16887,-14.636724 15.11257,-52.46337 18.08544,-76.490962 2.25106,-18.193755 2.26458,-51.216431 0.0285,-69.149326 -5.15142,-41.309584 -25.20801,-96.167014 -47.16047,-128.990284 -10.70807,-16.01063 -27.44094,-35.72869 -37.56136,-44.26235 -6.57988,-5.54824 -8.46295,-6.43659 -10.34065,-4.8782 -1.58535,1.31574 -2.29576,1.36589 -2.29576,0.16198 0,-0.9588 -5.4051,-6.03844 -12.01133,-11.28817 -12.17555,-9.67549 -38.26592,-23.71503 -60.79302,-32.71345 -37.6979,-15.05836 -89.31153,-22.06865 -128.1797,-17.40961 -23.28515,2.79113 -58.89756,12.26152 -80.28848,21.35108 -10.9394,4.64844 -21.12567,8.45169 -22.63614,8.45169 -6.83297,0 -38.786901,22.0703 -62.500157,43.16831 -27.200529,24.20066 -55.6571151,65.91159 -66.301988,97.18367 -5.209732,15.30498 -14.200645,63.142697 -15.371008,81.784123 -3.643264,58.0296276 17.666544,130.938149 53.07582,181.591607 21.067749,30.13769 61.490196,63.82177 95.990853,79.98934 24.14361,11.31408 56.39102,20.08902 85.51335,23.26936 16.06201,1.75406 63.11667,0.90985 81.63306,-1.46455 z m -57.29844,-84.79487 c -0.53268,-0.86193 0.0414,-3.00928 1.27622,-4.77193 1.97686,-2.82238 1.89661,-3.88767 -0.67246,-8.92678 -1.77194,-3.47555 -4.92869,-6.5753 -8.0408,-7.89557 -7.49002,-3.17762 -21.35889,-2.64135 -32.00736,1.23768 -14.08767,5.13189 -14.60053,5.21729 -15.60537,2.59868 -0.50922,-1.32695 0.26357,-14.29964 1.71726,-28.828139 1.45371,-14.528545 2.74481,-33.64105 2.8691,-42.472284 l 0.22597,-16.056769 8.63427,-1.879019 c 12.01595,-2.614963 30.88025,-2.546299 38.98334,0.141956 6.05246,2.007891 7.89517,1.964681 16.74126,-0.392492 12.24707,-3.263374 19.97911,-3.343563 29.97609,-0.311056 4.2385,1.285788 10.17891,2.356239 13.2009,2.378845 9.62895,0.07165 9.40104,-1.079885 7.61717,38.492902 -0.89425,19.837769 -2.3532,38.011406 -3.24212,40.385846 -1.90336,5.0841 -5.80556,5.51598 -17.57595,1.94533 -11.57553,-3.51155 -21.00797,-2.97648 -30.44713,1.72727 -7.74092,3.85745 -10.06439,7.13008 -6.5877,9.27877 2.50372,1.54741 1.72386,7.53953 -1.48126,11.38154 -3.28398,3.93653 -4.1702,4.24852 -5.58144,1.96508 z m -24.87251,-27.87036 c 7.9994,-0.55835 13.38971,-0.0503 18.71217,1.76309 4.11181,1.40105 7.83926,2.18412 8.28322,1.74014 0.66092,-0.66087 6.47742,-73.474387 5.9013,-73.875111 -0.097,-0.06764 -5.74837,-1.742893 -12.55838,-3.723016 -12.71931,-3.698364 -21.10407,-3.722794 -34.00954,-0.09924 l -5.57484,1.565338 -1.95909,29.447399 c -1.07748,16.196055 -2.37116,33.81225 -2.87482,39.14706 l -0.91576,9.69965 6.87981,-2.44061 c 3.7839,-1.34235 11.93607,-2.79354 18.11593,-3.22484 z m 11.52695,-14.630452 c -3.02199,-0.784359 -9.90978,-0.997827 -15.3062,-0.474371 -11.55457,1.12087 -13.45342,-1.444876 -3.13973,-4.242423 7.84357,-2.127508 33.07663,0.946207 32.1054,3.910897 -0.73088,2.231015 -6.79109,2.588529 -13.65947,0.805897 z M 210.41376,78.54821 c -5.49986,-2.069034 -7.55695,-2.176057 -11.70847,-0.609029 -2.88238,1.087984 -5.62454,1.312888 -6.41161,0.525814 -2.06244,-2.062449 5.15026,-6.447005 10.62021,-6.455949 6.58286,-0.0089 19.66649,4.900491 19.66649,7.382264 0,2.594626 -3.71234,2.337371 -12.16662,-0.8431 z m 2.74742,-19.160877 c -1.29514,-0.875763 -6.40655,-1.394813 -11.35867,-1.153355 -9.6208,0.469032 -11.95627,-1.420934 -5.73372,-4.639942 5.08743,-2.631828 11.59411,-2.473986 17.18453,0.416966 3.41278,1.764788 5.44797,1.973137 7.66817,0.784939 4.16154,-2.227233 6.36849,-2.024936 6.36849,0.583708 0,1.210671 -2.22474,2.976749 -4.94386,3.924647 -5.98145,2.085144 -6.22094,2.087324 -9.18494,0.08322 z m 28.80039,51.091207 c 3.09971,-1.29513 9.10191,-2.35481 13.3382,-2.35481 4.23632,0 10.70578,1.05968 14.37661,2.35481 9.86084,3.47911 14.12763,3.12369 14.13416,-1.17738 0.003,-1.94275 0.66233,-11.303044 1.4653,-20.800757 0.80296,-9.497668 1.86375,-24.509529 2.35731,-33.359675 l 0.89739,-16.091123 -5.89489,-0.0178 c -3.24218,-0.0089 -9.36274,-1.069027 -13.60124,-2.35477 -9.10033,-2.760701 -17.44195,-2.984759 -24.14359,-0.64859 -5.5315,1.928325 -5.37094,1.141696 -8.16491,40.001012 -1.64344,22.857549 -2.01986,36.803053 -0.99337,36.803053 0.32627,0 3.12932,-1.05968 6.22903,-2.35481 z m 18.29561,-13.390764 c -3.022,-0.748759 -8.14369,-0.954172 -11.38154,-0.456571 -7.05768,1.084691 -8.09891,-1.84293 -1.56986,-4.414015 4.95884,-1.952712 26.54767,1.518078 25.9516,4.172156 -0.46102,2.052837 -6.27326,2.365095 -13.0002,0.69843 z m 5.54947,-17.515172 c -1.69661,-0.995558 -6.99491,-1.992628 -11.774,-2.215707 -10.02232,-0.467786 -12.3742,-4.205265 -3.19467,-5.076845 6.71324,-0.637376 23.85203,4.318339 23.06901,6.67044 -0.81212,2.439498 -4.51811,2.724121 -8.10034,0.622112 z m -3.19467,-20.114738 c -1.72686,-0.74204 -5.43567,-1.398818 -8.24181,-1.459516 -3.62067,-0.07832 -5.10206,-0.852045 -5.10206,-2.664892 0,-2.139123 1.21256,-2.394375 7.45687,-1.569788 16.24066,2.144641 19.23086,2.934697 19.23086,5.081028 0,2.462683 -8.16652,2.837953 -13.34386,0.613168 z M 385.8465,118.05064 c -3.02199,-2.29189 -8.11371,-6.6368 -11.31492,-9.65533 l -5.82041,-5.48829 -10.88048,7.29998 c -13.25145,8.89078 -15.94045,10.04627 -15.94045,6.84964 0,-1.31564 5.65152,-6.35217 12.55893,-11.19237 L 367.0081,97.064013 V 85.956151 74.848289 l -9.5673,1.110368 c -8.78962,1.020166 -9.52184,0.873182 -9.00791,-1.808175 0.42845,-2.235554 2.66758,-3.235873 9.5673,-4.274195 l 9.00791,-1.355608 v -6.101283 c 0,-4.995321 -0.55297,-6.101239 -3.05072,-6.101239 -1.67789,0 -4.15043,-1.570099 -5.49453,-3.489034 -7.94489,-11.342912 4.1281,-24.828462 17.30051,-19.324638 11.44329,4.781275 11.61225,19.28886 0.27149,23.310695 -1.8834,0.667947 -2.74726,2.645044 -2.74726,6.287649 v 5.313363 l 8.24179,-0.672664 c 12.14165,-0.991019 12.16647,-1.011133 12.16647,-9.856651 0,-4.371962 0.99985,-10.342014 2.22189,-13.266787 3.55137,-8.499619 12.11355,-11.413534 17.15813,-5.83931 3.54953,3.922154 3.26081,9.991975 -0.71572,15.047327 -3.15316,4.008574 -3.18198,4.358567 -0.59454,7.217658 2.9187,3.225104 2.06953,8.520089 -1.19453,7.448392 -1.07883,-0.354222 -3.53113,-2.960551 -5.44958,-5.791785 l -3.48808,-5.147733 -0.43659,22.537282 c -0.36401,18.792549 -0.82785,22.537279 -2.79138,22.537279 -1.90142,0 -2.44131,-2.946976 -2.80411,-15.306182 -0.50334,-17.1468 0.57815,-16.048625 -14.07195,-14.288956 l -8.2418,0.989951 v 12.806611 c 0,12.762466 0.0205,12.825746 5.887,18.373446 3.23785,3.06179 8.18293,7.13872 10.98907,9.05979 5.08541,3.48147 6.86687,8.00433 3.13973,7.97127 -1.07928,-0.009 -4.43488,-1.8926 -7.45687,-4.18449 z m 23.548,-72.995205 c 0,-1.765499 -1.14115,-2.866077 -2.97177,-2.866077 -3.30415,0 -4.87756,2.914938 -4.87756,9.036291 v 4.069939 l 3.92466,-3.68706 c 2.15857,-2.027872 3.92467,-4.976764 3.92467,-6.553093 z m -32.2944,4.086182 c 3.2315,-3.231512 3.11268,-4.736641 -0.6728,-8.522136 -3.93082,-3.930832 -8.02119,-3.990106 -12.72103,-0.18423 -3.22115,2.608332 -3.42984,3.43777 -1.77744,7.0644 1.49283,3.276368 2.96976,4.109055 7.28828,4.109055 2.97883,0 6.52619,-1.110101 7.88299,-2.466911 z M 83.513861,115.21585 c -0.537927,-2.14331 -0.198204,-6.13417 0.755029,-8.86853 0.953207,-2.73435 1.733099,-6.929338 1.733099,-9.322156 0,-3.53478 -0.862813,-4.540128 -4.60112,-5.3612 -6.726154,-1.477316 -9.178162,-4.970801 -5.835239,-8.313742 2.234891,-2.234887 3.136825,-2.326112 5.905006,-0.597326 1.796979,1.122205 3.546671,1.760961 3.88821,1.419422 0.341539,-0.341761 1.34734,-4.451084 2.235114,-9.132322 1.337416,-7.052207 1.214107,-8.780993 -0.71939,-10.084358 C 70.837755,54.144948 68.813319,51.294713 72.963323,45.36974 c 1.272108,-1.816185 6.139104,-5.461505 10.815532,-8.10072 l 8.502604,-4.798585 0.02136,-9.661829 c 0.02981,-13.4073189 1.186739,-17.0009289 5.285265,-16.4161079 2.797486,0.3991664 3.237636,1.3501347 2.763016,5.9693849 -0.31052,3.022005 -0.663725,8.320283 -0.784935,11.773984 l -0.220365,6.279462 6.66482,0.482426 c 4.47831,0.323961 7.16406,1.415194 8.18657,3.325764 2.07304,3.873516 0.67726,4.826086 -7.07148,4.826086 -7.754665,0 -9.631459,1.794513 -11.031136,10.54756 -1.019311,6.37447 -0.919141,6.549711 6.995546,12.235808 6.91406,4.967285 8.02968,6.499514 8.02968,11.028473 0,6.211288 -4.65605,12.168123 -12.558933,16.067583 -5.40794,2.668362 -5.507767,2.896693 -6.334206,14.485111 -0.461823,6.47571 -1.386554,12.65705 -2.054986,13.73635 -2.017188,3.2571 -5.617375,2.21095 -6.657869,-1.93464 z M 100.16586,78.583543 c 2.99918,-2.428596 3.25009,-3.361675 1.68855,-6.279461 -3.43823,-6.424354 -7.909615,-2.84761 -7.981656,6.38466 -0.02759,3.512175 1.864903,3.480535 6.293106,-0.105021 z m -9.564615,-33.135617 0.11036,-3.805875 -3.922328,3.684835 c -3.727507,3.501806 -3.788792,3.832353 -1.233869,6.655532 2.57849,2.849212 2.73441,2.854151 3.811981,0.121041 0.617947,-1.56734 1.173193,-4.562334 1.233869,-6.655533 z M 229.42584,-28.764227 c -0.71037,-1.124875 -1.13689,-7.288058 -0.9478,-13.695946 0.4082,-13.83274 -0.83387,-15.945919 -20.52753,-34.924924 -8.83628,-8.515639 -12.20552,-12.78494 -11.51324,-14.588976 1.45002,-3.778686 4.58283,-1.534009 20.25611,14.513637 7.55498,7.735418 13.73633,13.35334 13.73633,12.484252 0,-0.869088 -1.73753,-3.190439 -3.86118,-5.158592 -6.86587,-6.363077 -7.15498,-15.095254 -0.76859,-23.214263 2.74747,-3.492817 4.53045,-4.179721 10.84927,-4.179721 9.98292,0 14.88125,3.802049 14.66634,11.383896 -0.18944,6.682944 -4.1656,13.125054 -9.94596,16.114174 -3.82049,1.975673 -7.54675,9.385528 -5.66571,11.266549 0.39454,0.394717 5.90385,-3.068597 12.24288,-7.695901 25.80716,-18.838607 35.85842,-24.012329 35.85842,-18.457641 0,0.790189 -6.53458,5.79263 -14.52127,11.116495 -7.9867,5.323865 -18.88429,12.936284 -24.21687,16.916556 l -9.69561,7.236793 -0.50853,10.863467 c -0.49389,10.550809 -2.62343,14.475412 -5.43706,10.020145 z m 11.49929,-48.629904 c 4.99791,-4.6953 4.9259,-11.901077 -0.13154,-13.170444 -9.96961,-2.502199 -16.2054,3.910629 -12.24813,12.595903 2.26962,4.981258 7.43387,5.220936 12.37975,0.574541 z M 80.550818,-32.966822 c -0.566879,-2.580964 -6.33967,-10.889455 -12.828447,-18.463292 -13.76283,-16.064334 -16.257442,-20.367722 -16.257442,-28.0452 0,-15.29902 15.163152,-24.386446 28.812542,-17.267663 4.108482,2.142772 4.845409,2.075888 8.894616,-0.80741 12.150753,-8.652123 25.372923,-4.749503 29.847873,8.80974 3.12694,9.474706 -0.23532,16.443431 -15.83341,32.816818 -7.724651,8.108596 -14.165657,15.66361 -14.313335,16.78893 -0.147741,1.125275 -0.324317,3.812106 -0.392447,5.970675 -0.08758,2.775341 -1.11602,4.066023 -3.511605,4.40734 -2.650937,0.377806 -3.611775,-0.537785 -4.418327,-4.209938 z m 29.391632,-43.068764 c 3.56111,-6.430094 3.46351,-9.170147 -0.5064,-14.217087 -2.12727,-2.704364 -4.77139,-4.136379 -7.63762,-4.136379 -4.663979,0 -13.231857,5.648672 -11.881633,7.833363 1.105566,1.788861 -0.768745,6.295437 -2.618318,6.295437 -0.829029,0 -3.839233,-2.472518 -6.689339,-5.494524 -8.934693,-9.473549 -21.294878,-5.951628 -21.294878,6.067775 0,5.621259 1.761779,8.384274 15.327736,24.038628 l 8.404326,9.698097 12.074441,-12.562305 c 6.640925,-6.909317 13.310695,-14.794655 14.821685,-17.523005 z m 243.25083,45.697121 c -2.83677,-2.836795 -2.27009,-7.424673 2.06808,-16.743717 8.52162,-18.305673 29.35477,-39.128498 41.906,-41.885193 2.83943,-0.62367 6.06598,-2.423657 7.17012,-4.00003 2.70931,-3.868087 11.86977,-5.3689 19.25841,-3.155239 7.00593,2.099027 12.63499,8.995395 12.82601,15.713583 0.33144,11.656193 -15.94797,28.273397 -38.01647,38.805293 -25.4973,12.168256 -40.55687,15.920554 -45.21215,11.265303 z m 24.37056,-7.643257 c 31.71452,-12.515714 54.91759,-31.331002 53.52381,-43.402293 -0.37407,-3.239789 -2.19624,-5.263122 -7.23738,-8.036327 -7.62553,-4.194897 -13.60661,-3.675847 -14.90615,1.293575 -0.62299,2.38236 -2.13613,3.15693 -6.167,3.15693 -2.9378,0 -6.6563,0.961426 -8.26331,2.136497 -2.66174,1.946303 -2.29155,2.231059 4.15831,3.19827 8.36604,1.254549 19.03407,10.529494 15.81435,13.749214 -1.36586,1.365843 -2.92257,0.617573 -6.3513,-3.052889 -4.6177,-4.943255 -7.39731,-6.022384 -18.07512,-7.017319 -5.57751,-0.519673 -6.60582,0.100126 -14.91373,8.992325 -9.63268,10.309929 -19.93958,27.848464 -18.52782,31.52747 1.33937,3.490325 7.56935,2.7332 20.94534,-2.545453 z m 2.03767,-10.054721 c -1.05591,-1.27226 -4.32139,-2.763772 -7.25662,-3.314417 -5.68593,-1.066713 -6.96105,-3.266756 -2.8154,-4.857592 3.39032,-1.301007 16.31701,5.12397 16.31701,8.110064 0,3.035222 -3.74655,3.07238 -6.24499,0.06186 z M 392.9109,-59.95848 c -2.59028,-1.659189 -6.96383,-3.020404 -9.71901,-3.024987 -5.81992,-0.0089 -7.70207,-1.985508 -4.45681,-4.678836 4.31689,-3.582663 22.81009,3.489703 22.81009,8.723321 0,2.981244 -2.92825,2.635478 -8.63427,-1.019498 z m -43.84413,-85.56334 c -3.80862,-3.80864 -3.09254,-10.94188 1.45773,-14.52116 5.3151,-4.18083 5.30584,-10.58249 -0.0173,-11.91852 -5.02645,-1.26154 -13.92171,4.78466 -12.40616,8.43256 3.64668,8.77761 0.71358,15.02111 -7.80768,16.61969 -9.15628,1.71775 -16.18594,-4.96306 -14.00353,-13.30857 0.96913,-3.70597 7.90507,-7.95494 12.98547,-7.95494 1.78184,0 5.70998,-1.5895 8.72918,-3.5322 4.06975,-2.6187 5.42386,-4.54725 5.23579,-7.45689 -0.50175,-7.76221 0.30754,-9.40017 6.10678,-12.35996 9.18392,-4.68725 11.88136,-8.37342 9.6735,-13.21913 -3.49567,-7.67218 0.7401,-18.3002 7.726,-19.38538 1.43896,-0.22339 4.38427,-0.84354 6.54512,-1.37777 5.28917,-1.30764 11.82766,1.38676 14.95766,6.16372 2.9392,4.48579 2.03938,9.01528 -2.66088,13.39423 -2.59134,2.41423 -2.83775,3.52495 -1.38441,6.24048 1.34641,2.51582 2.6995,3.0698 5.67428,2.32318 5.90312,-1.48159 12.28961,5.92515 11.15225,12.93383 -0.70973,4.37366 -0.10079,5.81084 3.88148,9.16179 2.93293,2.46789 6.65661,3.97435 9.82373,3.97435 5.58804,0 10.66176,4.27589 13.28216,11.19352 1.34709,3.55628 0.95092,4.71662 -2.85554,8.36345 -8.54195,8.18371 -19.84658,1.38569 -19.32783,-11.62277 0.20688,-5.18743 -0.52382,-6.71045 -4.76985,-9.94223 -4.04365,-3.07767 -5.6978,-3.51012 -8.54634,-2.23413 -3.80886,1.70618 -4.84811,5.81204 -1.47111,5.81204 3.10943,0 10.49784,8.37742 10.49784,11.90308 0,4.88798 -4.22927,9.67304 -10.32866,11.686 -5.06594,1.67192 -5.97792,1.505 -9.41433,-1.72335 -4.64726,-4.36587 -4.94233,-10.93067 -0.66528,-14.80133 4.08285,-3.6949 3.9983,-9.87281 -0.19624,-14.33769 -4.0157,-4.2745 -4.30892,-10.59406 -0.67771,-14.60646 2.23395,-2.46851 2.3378,-3.45045 0.65058,-6.15215 -1.7045,-2.72933 -3.0837,-3.07803 -9.13394,-2.30924 -10.53815,1.33909 -11.86519,3.26057 -7.61306,11.02344 3.03617,5.54294 3.24671,6.97567 1.56683,10.66259 -1.06733,2.34258 -3.37451,4.63421 -5.12702,5.09247 -5.14886,1.34648 -3.48679,8.91293 2.09894,9.55529 2.8997,0.33331 5.10509,1.99419 6.67193,5.02412 3.12549,6.04401 2.95092,8.78103 -0.79925,12.53124 -3.92986,3.92985 -15.84333,4.34063 -19.5112,0.6728 z m 14.9048,-2.2979 c 3.88107,-2.07709 3.88581,-6.5389 0.0111,-10.04587 -5.87151,-5.31363 -16.05512,3.34913 -11.04035,9.39158 2.2185,2.67313 6.75461,2.94222 11.02968,0.65429 z m 30.90166,-5.03871 c 1.07929,-0.86348 1.96233,-3.23614 1.96233,-5.27251 0,-4.4477 -5.84199,-6.517 -10.84284,-3.84063 -3.68002,1.96949 -4.62915,10.27446 -1.32362,11.58183 2.36405,0.93495 7.50409,-0.30838 10.20413,-2.46869 z m -61.7466,-0.11214 c 3.30724,-2.41827 2.83172,-7.08834 -0.96522,-9.47933 -3.54206,-2.23053 -11.25413,0.4729 -11.97122,4.19641 -1.21435,6.30567 6.96804,9.64714 12.93644,5.28292 z m 89.61173,-2.64344 c 1.35368,-4.26508 -0.3778,-9.09085 -3.94716,-11.00111 -2.18679,-1.17035 -3.27577,-0.99573 -4.21082,0.67511 -0.69366,1.23947 -1.96766,2.48044 -2.83108,2.75763 -1.93862,0.62234 -1.33448,5.79958 1.00579,8.61942 2.67421,3.22225 8.83278,2.57384 9.98327,-1.05105 z m -63.47639,-22.03336 c 3.72091,-1.99139 4.00834,-8.6641 0.45876,-10.65054 -4.79823,-2.68523 -13.12089,1.04095 -13.12089,5.87442 0,5.70087 6.41376,8.12012 12.66213,4.77612 z m 34.53706,-3.13971 c 4.06502,-2.17557 3.93993,-8.77005 -0.20848,-10.99021 -2.52424,-1.35093 -4.09335,-1.18081 -7.0644,0.7659 -3.61528,2.36883 -5.16585,8.40977 -2.77281,10.80281 1.557,1.55701 6.59785,1.2667 10.04568,-0.5785 z m -16.99774,-25.1401 c 10.7012,-2.97194 11.89899,-13.07922 1.77506,-14.97844 -3.36351,-0.63101 -6.21409,-0.34532 -7.28989,0.73038 -0.97161,0.97162 -2.96259,1.76657 -4.42437,1.76657 -2.92201,0 -4.56359,3.05796 -4.56359,8.501 0,6.09567 3.46355,7.04628 14.50279,3.98049 z m -114.40654,46.38852 c -1.07269,-2.79537 -11.81723,-3.12271 -22.40328,-0.6825 -9.87458,2.27618 -10.6361,-0.10012 -2.06147,-6.43232 6.3181,-4.66593 7.48729,-6.37362 7.91326,-11.55767 0.46918,-5.70995 0.27675,-6.01673 -3.13974,-5.00489 -2.00175,0.59288 -6.28869,1.48733 -9.52654,1.98774 -7.17118,1.10832 -7.54524,-0.73288 -1.64988,-8.12128 4.32986,-5.42644 7.58666,-5.90455 5.9918,-0.87959 -0.72741,2.29189 -0.17164,2.66044 3.07589,2.03966 4.61958,-0.8831 5.66852,-6.65624 1.21645,-6.69518 -1.51099,-0.0134 -3.6814,-0.61633 -4.82313,-1.34021 -2.92846,-1.85677 -5.132,-12.70292 -3.28274,-16.15827 3.78409,-7.07068 13.54408,-7.42601 17.98085,-0.65469 2.21457,3.37988 2.22019,4.3199 0.0568,9.49762 -2.02249,4.84051 -2.11616,7.57887 -0.59413,17.36895 1.36615,8.78745 1.36377,12.59497 -0.009,15.60954 l -1.81665,3.98708 6.49116,-1.03796 c 5.26691,-0.84221 6.89024,-0.49222 8.6071,1.8557 2.50122,3.42063 2.79979,8.57304 0.49678,8.57304 -0.89053,0 -2.02577,-1.05964 -2.52276,-2.35477 z m -17.14032,-43.52066 c 3.09115,-4.41322 3.12862,-8.47119 0.089,-9.63758 -5.5923,-2.14597 -9.31398,3.07518 -6.88069,9.65297 1.63092,4.40877 3.69614,4.4041 6.79168,-0.0178 z M 70.690767,-162.134 c -2.841001,-2.84098 0.588906,-8.00878 4.493101,-6.76963 4.112753,1.30537 7.104574,-1.38106 11.751957,-10.55223 2.457343,-4.84932 4.850041,-7.55546 6.680301,-7.55546 4.211699,0 4.792066,1.25192 2.901837,6.25975 -2.526986,6.69469 0.65895,12.9515 6.257597,12.28916 3.2943,-0.38982 5.21788,-2.42815 9.01345,-9.55165 4.09759,-7.69029 5.41733,-8.99254 8.75004,-8.63427 3.50723,0.37691 3.87596,1.04602 3.46666,6.28965 -0.6352,8.13779 1.97648,12.49836 7.11976,11.88737 3.18307,-0.37825 5.17106,-2.50465 8.92114,-9.54275 4.09759,-7.69029 5.41732,-8.99254 8.75004,-8.63427 3.50722,0.37691 3.87596,1.04602 3.46666,6.28965 -0.67685,8.67139 2.00985,12.73879 7.66717,11.60733 4.06853,-0.81368 4.56484,-0.48514 4.56484,3.0217 0,8.04967 -10.89977,6.8277 -15.98562,-1.79216 l -3.26096,-5.52692 -3.3281,4.72156 c -6.97425,9.89425 -16.05992,10.31126 -21.55986,0.98955 l -3.15229,-5.34274 -5.58179,6.17841 c -6.88146,7.61695 -11.667495,8.00726 -17.791954,1.45097 l -4.416004,-4.72734 -4.727354,4.72734 c -4.866194,4.86622 -10.812501,6.10511 -14.000621,2.91698 z m 0.209106,-30.29668 c -1.286521,-3.35264 0.655439,-5.56973 4.878503,-5.56973 4.720733,0 8.358896,-3.64394 12.114189,-12.13337 1.986006,-4.48971 3.948419,-6.70502 5.939574,-6.70502 4.147147,0 5.081548,2.21776 2.926877,6.94675 -3.997636,8.77387 5.389024,16.18635 11.579824,9.14438 1.32835,-1.51101 3.94735,-5.79392 5.81996,-9.51765 2.66994,-5.30918 4.14935,-6.6643 6.85484,-6.27911 2.94815,0.41964 3.39716,1.37047 3.08637,6.53485 -0.46377,7.70649 1.84898,12.00917 6.45511,12.00917 4.26973,0 7.22401,-3.04314 11.81106,-12.16648 3.37713,-6.71681 7.16165,-8.45253 10.7047,-4.90948 1.27946,1.27947 1.29644,2.78518 0.062,5.49453 -2.84808,6.25089 0.61279,11.58143 7.51926,11.58143 4.39369,0 5.53089,0.57107 5.13571,2.57901 -1.49279,7.58496 -11.6424,6.48594 -16.36159,-1.77164 l -3.19071,-5.58308 -5.07288,6.31252 c -7.46705,9.29177 -15.72284,8.33715 -21.94176,-2.53704 -1.53957,-2.69208 -2.06169,-2.45663 -6.57091,2.96255 -6.32617,7.6029 -12.51592,8.00264 -18.490237,1.19416 l -4.117884,-4.6928 -4.286237,4.6928 c -4.70445,5.15076 -13.271246,6.54237 -14.855741,2.41325 z m -127.629428,-25.71798 c -7.269657,-1.43815 -13.511315,-3.50216 -13.870352,-4.58672 -0.733011,-2.21424 16.577839,-19.13346 19.631044,-19.18691 2.337059,-0.0401 2.632941,4.07546 0.392447,5.46017 -0.863428,0.5336 -1.569868,1.60361 -1.569868,2.37778 0,3.38815 31.985048,-11.05994 45.5512586,-20.57607 9.8593744,-6.91595 12.8399414,-12.18677 9.3020589,-16.44966 -3.8563479,-4.64662 -15.4103105,-10.25039 -25.2859405,-12.26393 -7.374517,-1.50358 -10.086953,-2.76306 -10.497107,-4.8742 -0.498339,-2.56503 0.335354,-2.75504 8.425188,-1.92009 10.160182,1.0486 23.3794432,6.93927 30.5005361,13.59137 3.5907265,3.35425 4.7986699,5.87118 4.7986699,9.99883 0,9.83698 -17.2098434,22.2754 -48.518235,35.06644 -9.147176,3.73707 -16.278006,6.85805 -15.846292,6.93543 8.171087,1.46517 14.913729,4.24385 14.913729,6.14605 0,3.241 -2.749331,3.28416 -17.927155,0.28169 z"
       id="path4496"
       inkscape:connector-curvature="0"
       sodipodi:nodetypes="csssssssssscsssccccsccscscsssssssssscccccccccccsccccsccccsccccccscccccccccccccccccsccccccsccccscccsccccsscccccccccccccsssscccccsccccccccsscccsccsccccccccssscscccccsssccscsccsccccsscccsccsccccccccsccscsccccccccccscscccscccsccsscccssccsccccccccscssscccccccscscscccccccccsscscccscccscccscccscccccscccccccsccscccccccccscccccsscccscccccccccccccccccsscccccccccccccssccccccccccssccccsccscccccccsccccsccccccccccsccscscscccscccccccccccscsscccsscccsscccccccccccsccssscscssscscc" />
  </g>
</svg>
